<svg xmlns="http://www.w3.org/2000/svg" width="168" height="172" viewBox="0 0 168 172">
  <metadata><?xpacket begin="﻿" id="W5M0MpCehiHzreSzNTczkc9d"?>
<x:xmpmeta xmlns:x="adobe:ns:meta/" x:xmptk="Adobe XMP Core 5.6-c138 79.159824, 2016/09/14-01:09:01        ">
   <rdf:RDF xmlns:rdf="http://www.w3.org/1999/02/22-rdf-syntax-ns#">
      <rdf:Description rdf:about=""/>
   </rdf:RDF>
</x:xmpmeta>
                                                                                                    
                                                                                                    
                                                                                                    
                                                                                                    
                                                                                                    
                                                                                                    
                                                                                                    
                                                                                                    
                                                                                                    
                                                                                                    
                                                                                                    
                                                                                                    
                                                                                                    
                                                                                                    
                                                                                                    
                                                                                                    
                                                                                                    
                                                                                                    
                                                                                                    
                                                                                                    
                           
<?xpacket end="w"?></metadata>
<defs>
    <style>
      .cls-1 {
        fill: #2b79cf;
        fill-rule: evenodd;
      }
    </style>
  </defs>
  <path id="Щит" class="cls-1" d="M166.7,24.038a147.416,147.416,0,0,0-3.633-18.455A7.014,7.014,0,0,0,156.152.011H11.878A6.991,6.991,0,0,0,5.115,5.09,142.1,142.1,0,0,0,1.329,24.038,146.719,146.719,0,0,0,.019,43.356a143.377,143.377,0,0,0,22,76.821A133.1,133.1,0,0,0,81.178,171.4a7.034,7.034,0,0,0,5.677,0,133.1,133.1,0,0,0,59.154-51.224,143.308,143.308,0,0,0,22.005-76.821A146.371,146.371,0,0,0,166.7,24.038Zm-32.6,89a119.838,119.838,0,0,1-50.068,44.668,119.762,119.762,0,0,1-50.092-44.668A130.233,130.233,0,0,1,14.048,43.356a132.826,132.826,0,0,1,1.137-17.649,121.369,121.369,0,0,1,2.17-12.049h133.32q1.365,5.964,2.171,12.074a132.123,132.123,0,0,1,1.16,17.623A130.189,130.189,0,0,1,134.1,113.037Zm4.393-74.467-0.025-.075V38.472c-0.052-1.694-.153-3.315-0.28-4.69A4.18,4.18,0,0,0,134,30H34.037a4.176,4.176,0,0,0-4.215,3.953c-0.1,1.35-.227,2.921-0.279,4.615v0.2c-0.049,1.716-.1,3.287-0.1,4.589A114.491,114.491,0,0,0,43.575,98.5a104.254,104.254,0,0,0,38.259,39.764,4.286,4.286,0,0,0,4.365,0A104.249,104.249,0,0,0,124.457,98.5a114.8,114.8,0,0,0,14.156-55.149c0-1.375-.075-2.971-0.124-4.786h0ZM37.846,43.356c0-1.669.026-3.142,0.078-4.368V38.864l0.023-.663h80.378L50.793,94.333A106.454,106.454,0,0,1,37.846,43.356Zm79.241,51.321A96.748,96.748,0,0,1,84.028,130a94.936,94.936,0,0,1-25.79-23.98l71.9-59.766A107.1,107.1,0,0,1,117.087,94.677Z"/>
</svg>
