<svg xmlns="http://www.w3.org/2000/svg" width="169" height="170" viewBox="0 0 169 170">
  <metadata><?xpacket begin="﻿" id="W5M0MpCehiHzreSzNTczkc9d"?>
<x:xmpmeta xmlns:x="adobe:ns:meta/" x:xmptk="Adobe XMP Core 5.6-c138 79.159824, 2016/09/14-01:09:01        ">
   <rdf:RDF xmlns:rdf="http://www.w3.org/1999/02/22-rdf-syntax-ns#">
      <rdf:Description rdf:about=""/>
   </rdf:RDF>
</x:xmpmeta>
                                                                                                    
                                                                                                    
                                                                                                    
                                                                                                    
                                                                                                    
                                                                                                    
                                                                                                    
                                                                                                    
                                                                                                    
                                                                                                    
                                                                                                    
                                                                                                    
                                                                                                    
                                                                                                    
                                                                                                    
                                                                                                    
                                                                                                    
                                                                                                    
                                                                                                    
                                                                                                    
                           
<?xpacket end="w"?></metadata>
<defs>
    <style>
      .cls-1 {
        fill: #2b79cf;
        fill-rule: evenodd;
      }
    </style>
  </defs>
  <path id="Перо" class="cls-1" d="M7.521,127.012c-13.073-23.222-7.726-57.777,6.045-79.3A6.29,6.29,0,0,1,22.53,45.84a6.779,6.779,0,0,1,2.685,4.081l0.024-.013c0.28,1.25.559,2.4,0.863,3.468a67.7,67.7,0,0,1,5.766-14.25c7.4-13.64,19.353-25.011,32.17-30.171a6.39,6.39,0,0,1,8.357,3.933,7.118,7.118,0,0,1-.117,5.147C70.97,21.1,69.9,24.126,68.962,27.08A108.839,108.839,0,0,1,102.9,5.244C128.443-4.868,157.6-1.841,168.571,28.671a6.911,6.911,0,0,1-3.782,8.751l-0.631.22c-21.71,6.028-29.808,20.893-37.467,34.972-10.666,19.6-20.658,37.928-56.142,37.3a75.149,75.149,0,0,0,9.547,3.7,6.851,6.851,0,0,1,4.272,8.48,6.739,6.739,0,0,1-3.244,4.055c-16.341,9.67-44.983,16.581-63.38,8.934-2.591,3.873-6.512,12.328-3.806,25.5v0.037c1.1,5.416.421,7.354-1.4,8.172a7.109,7.109,0,0,1-3.688,0c-2.2-.668-6.586-3.218-7.587-5.378-3.849-8.32,2.077-30.134,6.256-36.407h0Zm10.972-7.193c8.381,9.546,33.124,3.235,43.21.048-5.532-3.627-8.519-7.449-10.109-10.7-2.333-4.791-3.614-15.158,5.51-13.933,39.406,5.4,48.533-11.336,58.336-29.372,8.1-14.865,16.6-30.49,38.029-38.895-20.5-35.341-79.6,4.5-89.851,28.833a6.54,6.54,0,0,1-6.163,4.681,6.665,6.665,0,0,1-6.488-6.814,129.337,129.337,0,0,1,3.452-22.595,59.144,59.144,0,0,0-11.3,14.752c-5.371,9.878-7.8,21.151-5.111,31.31h0a6.993,6.993,0,0,1-2.663,7.476,6.28,6.28,0,0,1-8.942-1.937c-2.895-4.608-6.091-9.067-8.543-13.956C12.352,84.282,10.275,104.929,18.493,119.819Z"/>
</svg>
