<svg xmlns="http://www.w3.org/2000/svg" width="184" height="186" viewBox="0 0 184 186">
  <metadata><?xpacket begin="﻿" id="W5M0MpCehiHzreSzNTczkc9d"?>
<x:xmpmeta xmlns:x="adobe:ns:meta/" x:xmptk="Adobe XMP Core 5.6-c138 79.159824, 2016/09/14-01:09:01        ">
   <rdf:RDF xmlns:rdf="http://www.w3.org/1999/02/22-rdf-syntax-ns#">
      <rdf:Description rdf:about=""/>
   </rdf:RDF>
</x:xmpmeta>
                                                                                                    
                                                                                                    
                                                                                                    
                                                                                                    
                                                                                                    
                                                                                                    
                                                                                                    
                                                                                                    
                                                                                                    
                                                                                                    
                                                                                                    
                                                                                                    
                                                                                                    
                                                                                                    
                                                                                                    
                                                                                                    
                                                                                                    
                                                                                                    
                                                                                                    
                                                                                                    
                           
<?xpacket end="w"?></metadata>
<defs>
    <style>
      .cls-1 {
        fill: #2b79cf;
        fill-rule: evenodd;
      }
    </style>
  </defs>
  <path id="Прицел" class="cls-1" d="M4.389,97.434a4.431,4.431,0,0,1,0-8.862h22.33a66.29,66.29,0,0,1,19.03-42.317l-0.014-.013A64.939,64.939,0,0,1,87.609,27.017V4.43a4.384,4.384,0,1,1,8.767,0V27.017a64.909,64.909,0,0,1,41.872,19.224l0.368,0.4a66.286,66.286,0,0,1,18.651,41.931h22.343a4.431,4.431,0,0,1,0,8.862H157.266a66.293,66.293,0,0,1-19.033,42.3l0.014,0.013a64.93,64.93,0,0,1-41.872,19.228v22.586a4.384,4.384,0,1,1-8.767,0V158.976a64.96,64.96,0,0,1-41.874-19.228l-0.369-.4A66.352,66.352,0,0,1,26.719,97.434H4.389Zm36.983-8.862h22a4.431,4.431,0,0,1,0,8.862h-22A51.344,51.344,0,0,0,55.737,129l0.329,0.305a50.4,50.4,0,0,0,31.543,14.868V121.921a4.384,4.384,0,1,1,8.767,0v22.252a50.431,50.431,0,0,0,31.541-14.868l0.014,0.014,0.026-.014a51.409,51.409,0,0,0,14.667-31.871H120.6a4.431,4.431,0,0,1,0-8.862h22.025a51.418,51.418,0,0,0-14.376-31.583l-0.331-.318A50.433,50.433,0,0,0,96.375,41.817V64.072a4.384,4.384,0,1,1-8.767,0V41.817A50.405,50.405,0,0,0,56.065,56.671H56.038a51.352,51.352,0,0,0-14.667,31.9h0Zm97.243-41.931-0.368,10.03a7.438,7.438,0,0,0,.368-10.03h0Zm-93.249,92.71,0.369-10.046A7.462,7.462,0,0,0,45.366,139.351Z"/>
</svg>
