<svg xmlns="http://www.w3.org/2000/svg" width="194" height="193" viewBox="0 0 194 193">
  <metadata><?xpacket begin="﻿" id="W5M0MpCehiHzreSzNTczkc9d"?>
<x:xmpmeta xmlns:x="adobe:ns:meta/" x:xmptk="Adobe XMP Core 5.6-c138 79.159824, 2016/09/14-01:09:01        ">
   <rdf:RDF xmlns:rdf="http://www.w3.org/1999/02/22-rdf-syntax-ns#">
      <rdf:Description rdf:about=""/>
   </rdf:RDF>
</x:xmpmeta>
                                                                                                    
                                                                                                    
                                                                                                    
                                                                                                    
                                                                                                    
                                                                                                    
                                                                                                    
                                                                                                    
                                                                                                    
                                                                                                    
                                                                                                    
                                                                                                    
                                                                                                    
                                                                                                    
                                                                                                    
                                                                                                    
                                                                                                    
                                                                                                    
                                                                                                    
                                                                                                    
                           
<?xpacket end="w"?></metadata>
<defs>
    <style>
      .cls-1 {
        fill: #d8332f;
        fill-rule: evenodd;
      }
    </style>
  </defs>
  <path id="Тучка" class="cls-1" d="M78.44,36.983a6.1,6.1,0,0,1,0,8.672,6.2,6.2,0,0,1-8.728,0l-12.8-12.687a6.105,6.105,0,0,1,0-8.661,6.213,6.213,0,0,1,8.739,0L78.44,36.983h0ZM45.931,138.552a6.2,6.2,0,0,1,8.416-2.219,6.09,6.09,0,0,1,2.256,8.352L30.288,189.9a6.187,6.187,0,0,1-8.416,2.228,6.109,6.109,0,0,1-2.247-8.362l26.306-45.211h0Zm27.683,0L47.309,183.763a6.107,6.107,0,0,0,2.236,8.362,6.2,6.2,0,0,0,8.427-2.228l26.306-45.212a6.09,6.09,0,0,0-2.247-8.352,6.19,6.19,0,0,0-8.416,2.219h0Zm27.683,0a6.192,6.192,0,0,1,8.418-2.219,6.1,6.1,0,0,1,2.245,8.352L85.644,189.9a6.184,6.184,0,0,1-8.416,2.228,6.11,6.11,0,0,1-2.245-8.362L101.3,138.552h0Zm-74.778,7.92A47.908,47.908,0,0,1,16,130.9l-0.009-.012L16,130.872a47.94,47.94,0,0,1,0-36.728l0.112-.31A48.672,48.672,0,0,1,42.24,68.107l0.289-.133a48.665,48.665,0,0,1,18.211-3.487,49.254,49.254,0,0,1,13.919,2,48.637,48.637,0,0,1,12.7,5.891,49.365,49.365,0,0,1,10.274,9l0.011,0.011L97.63,81.4a48.524,48.524,0,0,1,7.293,11.451,6.18,6.18,0,0,0,6.36,3.563v0.011l1.168-.154,1.188-.088,0.212-.023,0.879-.045,0.089-.011,0.945-.011v0.022a32.3,32.3,0,0,1,22.958,9.434,31.968,31.968,0,0,1,0,45.554,32.925,32.925,0,0,1-8.639,6.168l-0.022.012v-0.012a32.833,32.833,0,0,1-10.151,3.033,6.1,6.1,0,1,0,1.546,12.1,44.76,44.76,0,0,0,14.053-4.182H135.5a45.053,45.053,0,0,0,11.952-8.462,44.179,44.179,0,0,0,9.716-48.424,43.731,43.731,0,0,0-4.68-8.482,43.509,43.509,0,0,0,3.8-8.453A44.136,44.136,0,0,0,145.371,49.24a45.052,45.052,0,0,0-54.224-6.972l-0.444.275A44.827,44.827,0,0,0,77.495,54.57a61.13,61.13,0,0,0-39.669,2.117L37.5,56.81A60.689,60.689,0,0,0,17.792,69.883,59.954,59.954,0,0,0,4.773,89.1l-0.157.352a59.8,59.8,0,0,0,0,46.117H4.627a60.246,60.246,0,0,0,13.165,19.572,6.219,6.219,0,0,0,8.728,0,6.1,6.1,0,0,0,0-8.672h0ZM89.369,59.359a32.912,32.912,0,0,1,7.616-6.311l0.389-.2a32.625,32.625,0,0,1,39.257,5.063,32.1,32.1,0,0,1,7.937,32.713c-0.309.947-.667,1.875-1.065,2.79a45.161,45.161,0,0,0-27.74-9.556v0.023h-0.1l-1.056.023h-0.39a61.093,61.093,0,0,0-7.227-10.459l-0.02.011a60.37,60.37,0,0,0-12.82-11.275c-1.546-1.016-3.135-1.955-4.782-2.824h0Zm80.384,27.414a6.128,6.128,0,1,1,0-12.256h18.065a6.128,6.128,0,1,1,0,12.256H169.753ZM157.7,45.677a6.233,6.233,0,0,1-8.739,0,6.1,6.1,0,0,1,0-8.672l12.8-12.7a6.213,6.213,0,0,1,8.739,0,6.117,6.117,0,0,1,0,8.672l-12.8,12.7h0ZM119.867,25.045a6.177,6.177,0,0,1-12.353,0V7.1a6.177,6.177,0,0,1,12.353,0V25.045Z"/>
</svg>
