<svg xmlns="http://www.w3.org/2000/svg" width="152" height="175" viewBox="0 0 152 175">
  <metadata><?xpacket begin="﻿" id="W5M0MpCehiHzreSzNTczkc9d"?>
<x:xmpmeta xmlns:x="adobe:ns:meta/" x:xmptk="Adobe XMP Core 5.6-c138 79.159824, 2016/09/14-01:09:01        ">
   <rdf:RDF xmlns:rdf="http://www.w3.org/1999/02/22-rdf-syntax-ns#">
      <rdf:Description rdf:about=""/>
   </rdf:RDF>
</x:xmpmeta>
                                                                                                    
                                                                                                    
                                                                                                    
                                                                                                    
                                                                                                    
                                                                                                    
                                                                                                    
                                                                                                    
                                                                                                    
                                                                                                    
                                                                                                    
                                                                                                    
                                                                                                    
                                                                                                    
                                                                                                    
                                                                                                    
                                                                                                    
                                                                                                    
                                                                                                    
                                                                                                    
                           
<?xpacket end="w"?></metadata>
<defs>
    <style>
      .cls-1 {
        fill: #d8332f;
        fill-rule: evenodd;
      }
    </style>
  </defs>
  <path id="Мешок" class="cls-1" d="M150.536,164.067c-3.093-4.022-6.141-10.565-8.4-17.785a73.194,73.194,0,0,1-3.65-20.983V93.532a66.345,66.345,0,0,0-18.369-46.013A61.919,61.919,0,0,0,99.87,33.394a60.757,60.757,0,0,0-10.9-3.441l17.7-18.437a6.958,6.958,0,0,0,1.907-4.774A6.622,6.622,0,0,0,102.1,0H49.858a6.333,6.333,0,0,0-4.579,1.987,6.96,6.96,0,0,0,0,9.523L63,29.953a59.584,59.584,0,0,0-10.9,3.441A61.763,61.763,0,0,0,31.815,47.519,65.521,65.521,0,0,0,18.237,68.674a66.923,66.923,0,0,0-4.767,24.858V125.3a73.946,73.946,0,0,1-3.65,20.983c-2.209,7.051-5.138,13.448-8.186,17.47a6.977,6.977,0,0,0-1.65,4.508,6.584,6.584,0,0,0,6.44,6.734H145.512v-0.023a6.3,6.3,0,0,0,4.045-1.478A6.892,6.892,0,0,0,150.536,164.067ZM86.5,13.478L75.969,24.454,65.436,13.478H86.5ZM17.842,161.548a95.255,95.255,0,0,0,4.231-11.123,87.158,87.158,0,0,0,4.3-25.126V93.532a53.112,53.112,0,0,1,3.767-19.7A51.551,51.551,0,0,1,40.953,57.042,48.931,48.931,0,0,1,56.974,45.8a47.518,47.518,0,0,1,18.95-3.732h0.162A47.119,47.119,0,0,1,94.966,45.8a49.031,49.031,0,0,1,16.042,11.242,52.653,52.653,0,0,1,14.554,36.49V125.3a87.971,87.971,0,0,0,4.3,25.126,95.461,95.461,0,0,0,4.254,11.123H17.842Zm79.519-51.054a12.5,12.5,0,0,0-3.466-8.625,11.664,11.664,0,0,0-7.928-3.635H79.828V76.67h5.767a4,4,0,0,1,2.838,1.258,4.26,4.26,0,0,1,1.186,2.933,3.875,3.875,0,1,0,7.743,0,12.419,12.419,0,0,0-3.488-8.649,11.559,11.559,0,0,0-8.278-3.61H79.828V65.111a3.875,3.875,0,1,0-7.743,0V68.6H66.343a11.513,11.513,0,0,0-8.276,3.61,12.408,12.408,0,0,0-3.488,8.649v13.18a12.46,12.46,0,0,0,3.464,8.652,11.544,11.544,0,0,0,7.928,3.61l0.371,0.025h5.743v21.516H66.343a3.905,3.905,0,0,1-2.836-1.238,4.217,4.217,0,0,1-1.162-2.93,3.887,3.887,0,1,0-7.766,0,12.408,12.408,0,0,0,3.488,8.625,11.44,11.44,0,0,0,8.276,3.634h5.743v3.491a3.875,3.875,0,1,0,7.743,0v-3.491h5.79a11.478,11.478,0,0,0,8.276-3.634,12.41,12.41,0,0,0,3.488-8.625v-8.989l-0.022-.315v-3.878ZM72.086,98.234H66.343a3.875,3.875,0,0,1-2.812-1.26,4.166,4.166,0,0,1-1.21-2.933V80.861a4.249,4.249,0,0,1,1.186-2.933,4,4,0,0,1,2.836-1.258h5.743V98.234Zm17.533,25.442a4.219,4.219,0,0,1-1.164,2.93,3.9,3.9,0,0,1-2.836,1.238h-5.79V106.328h5.767a3.915,3.915,0,0,1,2.814,1.235,4.21,4.21,0,0,1,1.209,2.931v13.182Z"/>
</svg>
