<svg xmlns="http://www.w3.org/2000/svg" width="146" height="164" viewBox="0 0 146 164">
  <metadata><?xpacket begin="﻿" id="W5M0MpCehiHzreSzNTczkc9d"?>
<x:xmpmeta xmlns:x="adobe:ns:meta/" x:xmptk="Adobe XMP Core 5.6-c138 79.159824, 2016/09/14-01:09:01        ">
   <rdf:RDF xmlns:rdf="http://www.w3.org/1999/02/22-rdf-syntax-ns#">
      <rdf:Description rdf:about=""/>
   </rdf:RDF>
</x:xmpmeta>
                                                                                                    
                                                                                                    
                                                                                                    
                                                                                                    
                                                                                                    
                                                                                                    
                                                                                                    
                                                                                                    
                                                                                                    
                                                                                                    
                                                                                                    
                                                                                                    
                                                                                                    
                                                                                                    
                                                                                                    
                                                                                                    
                                                                                                    
                                                                                                    
                                                                                                    
                                                                                                    
                           
<?xpacket end="w"?></metadata>
<defs>
    <style>
      .cls-1 {
        fill: #d8332f;
        fill-rule: evenodd;
      }
    </style>
  </defs>
  <path id="Молния" class="cls-1" d="M94.62,65.044h27.555a6.7,6.7,0,0,1,6.895,6.463,6.292,6.292,0,0,1-2.9,5.254l-114.98,85.83a7.224,7.224,0,0,1-9.674-1.036,6.143,6.143,0,0,1-.447-7.427L45.439,77.959H19.173a6.7,6.7,0,0,1-6.9-6.451,6.191,6.191,0,0,1,1.587-4.125L62.106,2.766A7.043,7.043,0,0,1,67.734.023V-0.013h71.381A6.683,6.683,0,0,1,146.01,6.45,6.2,6.2,0,0,1,144.024,11L94.62,65.044h0Zm7.862,12.915H79.689V77.947A7.241,7.241,0,0,1,75.2,76.4a6.189,6.189,0,0,1-.744-9.091l49.727-54.4H71.308L32.369,65.044H57.022v0.024a7.221,7.221,0,0,1,3.3.79,6.214,6.214,0,0,1,2.73,8.729L29.243,132.636Z"/>
</svg>
