<svg xmlns="http://www.w3.org/2000/svg" width="166.034" height="169.988" viewBox="0 0 168 172"><defs><style>.cls-1{fill:#2b79cf;fill-rule:evenodd}</style></defs><path id="Щит" class="cls-1" d="M166.7 24.038a147.6 147.6 0 0 0-3.634-18.455A7.015 7.015 0 0 0 156.15.011H11.848A6.992 6.992 0 0 0 5.084 5.09 142.072 142.072 0 0 0 1.3 24.038 146.691 146.691 0 0 0-.013 43.356 143.358 143.358 0 0 0 22 120.177 133.122 133.122 0 0 0 81.161 171.4a7.036 7.036 0 0 0 5.679 0 133.121 133.121 0 0 0 59.165-51.224 143.294 143.294 0 0 0 22.009-76.821 146.371 146.371 0 0 0-1.314-19.317zm-32.611 89a119.858 119.858 0 0 1-50.078 44.668 119.776 119.776 0 0 1-50.1-44.668A130.215 130.215 0 0 1 14.02 43.356a132.809 132.809 0 0 1 1.137-17.649 121.342 121.342 0 0 1 2.171-12.049h133.345q1.365 5.964 2.171 12.074a131.953 131.953 0 0 1 1.161 17.623 130.175 130.175 0 0 1-19.915 69.682zm4.394-74.467l-.026-.075v-.024a79.096 79.096 0 0 0-.279-4.69 4.182 4.182 0 0 0-4.19-3.78H34.012a4.176 4.176 0 0 0-4.212 3.953c-.1 1.35-.227 2.921-.279 4.615v.2c-.049 1.716-.1 3.287-.1 4.589A114.475 114.475 0 0 0 43.552 98.5a104.264 104.264 0 0 0 38.266 39.764 4.288 4.288 0 0 0 4.365 0A104.259 104.259 0 0 0 124.449 98.5a114.781 114.781 0 0 0 14.159-55.149c0-1.375-.075-2.971-.124-4.786zM37.822 43.356c0-1.669.026-3.142.077-4.368v-.124l.023-.663h80.394L50.771 94.333a106.438 106.438 0 0 1-12.949-50.977zm79.256 51.321A96.761 96.761 0 0 1 84.012 130a94.948 94.948 0 0 1-25.795-23.98l71.911-59.766a107.085 107.085 0 0 1-13.05 48.423z"/></svg>