<svg xmlns="http://www.w3.org/2000/svg" width="168.158" height="169.985" viewBox="0 0 184 186"><defs><style>.cls-1{fill:#2b79cf;fill-rule:evenodd}</style></defs><path id="Прицел" class="cls-1" d="M4.389 97.434a4.431 4.431 0 0 1 0-8.862h22.33a66.29 66.29 0 0 1 19.03-42.317l-.014-.013a64.939 64.939 0 0 1 41.874-19.225V4.43a4.384 4.384 0 1 1 8.767 0v22.587a64.909 64.909 0 0 1 41.872 19.224l.368.4a66.286 66.286 0 0 1 18.651 41.931h22.343a4.431 4.431 0 0 1 0 8.862h-22.344a66.293 66.293 0 0 1-19.033 42.3l.014.013a64.93 64.93 0 0 1-41.872 19.228v22.586a4.384 4.384 0 1 1-8.767 0v-22.585a64.96 64.96 0 0 1-41.874-19.228l-.369-.4a66.352 66.352 0 0 1-18.646-41.914H4.389zm36.983-8.862h22a4.431 4.431 0 0 1 0 8.862h-22A51.344 51.344 0 0 0 55.737 129l.329.305a50.4 50.4 0 0 0 31.543 14.868v-22.252a4.384 4.384 0 1 1 8.767 0v22.252a50.431 50.431 0 0 0 31.541-14.868l.014.014.026-.014a51.409 51.409 0 0 0 14.667-31.871H120.6a4.431 4.431 0 0 1 0-8.862h22.025a51.418 51.418 0 0 0-14.376-31.583l-.331-.318a50.433 50.433 0 0 0-31.543-14.854v22.255a4.384 4.384 0 1 1-8.767 0V41.817a50.405 50.405 0 0 0-31.543 14.854h-.027a51.352 51.352 0 0 0-14.667 31.9zm97.243-41.931l-.368 10.03a7.438 7.438 0 0 0 .368-10.03zm-93.249 92.71l.369-10.046a7.462 7.462 0 0 0-.369 10.046z"/></svg>