<svg xmlns="http://www.w3.org/2000/svg" width="171.964" height="169.988" viewBox="0 0 174 172"><defs><style>.cls-1{fill:#d8332f;fill-rule:evenodd}</style></defs><path id="Тучка" class="cls-1" d="M70.353 32.268a5.46 5.46 0 0 1 0 7.77 5.564 5.564 0 0 1-7.828 0L51.048 28.67a5.466 5.466 0 0 1 0-7.76 5.576 5.576 0 0 1 7.838 0l11.467 11.358zm-29.157 91a5.559 5.559 0 0 1 7.548-1.988 5.453 5.453 0 0 1 2.024 7.482l-23.6 40.51a5.551 5.551 0 0 1-7.548 2 5.47 5.47 0 0 1-2.02-7.492l23.6-40.508zm24.829 0L42.432 163.78a5.469 5.469 0 0 0 2.005 7.492 5.561 5.561 0 0 0 7.558-2l23.594-40.51a5.452 5.452 0 0 0-2.016-7.482 5.555 5.555 0 0 0-7.548 1.988zm24.829 0a5.557 5.557 0 0 1 7.55-1.988 5.461 5.461 0 0 1 2.014 7.482l-23.6 40.51a5.549 5.549 0 0 1-7.548 2 5.472 5.472 0 0 1-2.014-7.492l23.6-40.508zm-67.069 7.1a42.915 42.915 0 0 1-9.435-13.957l-.008-.01.008-.011a42.91 42.91 0 0 1 0-32.907l.1-.277a43.21 43.21 0 0 1 9.335-13.69 43.683 43.683 0 0 1 14.1-9.361l.259-.119a43.687 43.687 0 0 1 16.334-3.124A44.22 44.22 0 0 1 66.963 58.7a43.645 43.645 0 0 1 11.387 5.279 44.261 44.261 0 0 1 9.215 8.067l.01.01-.01.01a43.472 43.472 0 0 1 6.541 10.26 5.544 5.544 0 0 0 5.7 3.193v.01l1.048-.138 1.066-.079.19-.021.788-.04.08-.01.847-.01v.02a28.984 28.984 0 0 1 20.596 8.449 28.624 28.624 0 0 1 0 40.816 29.569 29.569 0 0 1-7.748 5.527l-.021.01v-.01a29.487 29.487 0 0 1-9.1 2.717 5.467 5.467 0 1 0 1.387 10.845 40.212 40.212 0 0 0 12.6-3.747h-.01a40.443 40.443 0 0 0 10.72-7.582 39.553 39.553 0 0 0 8.714-43.387 39.122 39.122 0 0 0-4.2-7.6 39.02 39.02 0 0 0 3.411-7.574 39.513 39.513 0 0 0-9.793-40.469A40.439 40.439 0 0 0 81.751 37l-.4.247a40.192 40.192 0 0 0-11.846 10.779 54.88 54.88 0 0 0-35.58 1.9l-.288.109a54.438 54.438 0 0 0-17.68 11.714A53.714 53.714 0 0 0 4.281 78.966l-.141.316a53.527 53.527 0 0 0 0 41.32h.01a53.975 53.975 0 0 0 11.808 17.536 5.584 5.584 0 0 0 7.828 0 5.463 5.463 0 0 0 0-7.77zm56.37-78.052a29.515 29.515 0 0 1 6.831-5.655l.349-.178a29.285 29.285 0 0 1 35.21 4.537 28.737 28.737 0 0 1 7.119 29.31c-.277.848-.6 1.68-.955 2.5a40.531 40.531 0 0 0-24.881-8.562v.02h-.09l-.947.021h-.35a54.745 54.745 0 0 0-6.482-9.372l-.018.01a54.116 54.116 0 0 0-11.5-10.1 51.712 51.712 0 0 0-4.289-2.53zm72.1 24.563a5.491 5.491 0 1 1 0-10.981h16.2a5.491 5.491 0 1 1 0 10.981h-16.2zm-10.812-36.821a5.6 5.6 0 0 1-7.838 0 5.459 5.459 0 0 1 0-7.77l11.477-11.378a5.576 5.576 0 0 1 7.838 0 5.477 5.477 0 0 1 0 7.77l-11.477 11.378zm-33.934-18.486a5.54 5.54 0 0 1-11.079 0V5.49a5.54 5.54 0 0 1 11.079 0v16.082z"/></svg>