<svg xmlns="http://www.w3.org/2000/svg" width="147.257" height="169.988" viewBox="0 0 149 172"><defs><style>.cls-1{fill:#d8332f;fill-rule:evenodd}</style></defs><path id="Мешок" class="cls-1" d="M147.6 161.254c-3.032-3.953-6.02-10.383-8.231-17.48a72.074 72.074 0 0 1-3.579-20.623V91.929A65.294 65.294 0 0 0 117.776 46.7a60.713 60.713 0 0 0-19.857-13.879 59.456 59.456 0 0 0-10.691-3.382l17.349-18.121a6.845 6.845 0 0 0 1.87-4.692A6.5 6.5 0 0 0 100.109 0H48.884a6.2 6.2 0 0 0-4.489 1.953 6.853 6.853 0 0 0 0 9.36l17.37 18.121a58.308 58.308 0 0 0-10.692 3.382A60.555 60.555 0 0 0 31.194 46.7a64.416 64.416 0 0 0-13.313 20.8 65.918 65.918 0 0 0-4.674 24.432v31.222a72.833 72.833 0 0 1-3.579 20.623c-2.166 6.93-5.038 13.217-8.026 17.17a6.872 6.872 0 0 0-1.618 4.432 6.464 6.464 0 0 0 6.316 6.615h136.369v-.022a6.163 6.163 0 0 0 3.966-1.453 6.786 6.786 0 0 0 .965-9.265zM84.812 13.247L74.485 24.035 64.157 13.247h20.655zM17.493 158.779a93.821 93.821 0 0 0 4.148-10.932 85.859 85.859 0 0 0 4.218-24.7V91.929a52.312 52.312 0 0 1 3.693-19.36 50.679 50.679 0 0 1 10.6-16.5 47.974 47.974 0 0 1 15.708-11.05 46.493 46.493 0 0 1 18.58-3.672h.16a46.1 46.1 0 0 1 18.511 3.668 48.085 48.085 0 0 1 15.73 11.05 51.82 51.82 0 0 1 14.27 35.865v31.222a86.664 86.664 0 0 0 4.218 24.7 93.973 93.973 0 0 0 4.171 10.932H17.493zM95.459 108.6a12.3 12.3 0 0 0-3.4-8.477 11.427 11.427 0 0 0-7.774-3.572h-6.016V75.356h5.654a3.918 3.918 0 0 1 2.783 1.236 4.192 4.192 0 0 1 1.162 2.882 3.8 3.8 0 1 0 7.591 0 12.222 12.222 0 0 0-3.42-8.5 11.321 11.321 0 0 0-8.117-3.548h-5.653v-3.432a3.8 3.8 0 1 0-7.591 0v3.431h-5.63a11.275 11.275 0 0 0-8.114 3.548 12.211 12.211 0 0 0-3.42 8.5v12.956a12.26 12.26 0 0 0 3.4 8.5 11.308 11.308 0 0 0 7.773 3.549l.364.024h5.63v21.148h-5.63a3.827 3.827 0 0 1-2.78-1.217 4.151 4.151 0 0 1-1.139-2.88 3.811 3.811 0 1 0-7.615 0 12.212 12.212 0 0 0 3.42 8.477 11.2 11.2 0 0 0 8.114 3.572h5.63v3.431a3.8 3.8 0 1 0 7.591 0V133.6h5.677a11.24 11.24 0 0 0 8.114-3.572 12.213 12.213 0 0 0 3.42-8.477v-8.835l-.021-.31V108.6zM70.677 96.55h-5.63a3.8 3.8 0 0 1-2.757-1.239 4.1 4.1 0 0 1-1.19-2.882V79.475a4.182 4.182 0 0 1 1.162-2.882 3.913 3.913 0 0 1 2.78-1.236h5.63V96.55zm17.19 25.006a4.153 4.153 0 0 1-1.141 2.88 3.827 3.827 0 0 1-2.78 1.217h-5.677v-21.148h5.654a3.834 3.834 0 0 1 2.759 1.214 4.144 4.144 0 0 1 1.186 2.88v12.957z"/></svg>