<svg xmlns="http://www.w3.org/2000/svg" width="169.997" height="169.997" viewBox="0 0 169 169"><defs><style>.cls-1{fill:#2b79cf;fill-rule:evenodd}</style></defs><path id="Перо" class="cls-1" d="M7.521 126.98C-5.553 103.758-.205 69.2 13.566 47.683a6.29 6.29 0 0 1 8.964-1.875 6.779 6.779 0 0 1 2.685 4.081l.024-.013c.28 1.25.559 2.4.863 3.468a67.7 67.7 0 0 1 5.766-14.25c7.4-13.64 19.353-25.011 32.17-30.171a6.39 6.39 0 0 1 8.357 3.933A7.118 7.118 0 0 1 72.277 18c-1.308 3.064-2.379 6.091-3.315 9.045A108.836 108.836 0 0 1 102.9 5.213C128.443-4.9 157.6-1.873 168.571 28.64a6.911 6.911 0 0 1-3.782 8.751l-.631.221c-21.71 6.028-29.808 20.888-37.467 34.972-10.666 19.6-20.658 37.928-56.142 37.3a75.017 75.017 0 0 0 9.547 3.7 6.852 6.852 0 0 1 4.272 8.48 6.739 6.739 0 0 1-3.244 4.056c-16.341 9.669-44.983 16.581-63.38 8.934-2.591 3.872-6.512 12.327-3.806 25.5v.037c1.1 5.416.421 7.354-1.4 8.171a7.087 7.087 0 0 1-3.688 0c-2.2-.667-6.586-3.217-7.587-5.378-3.849-8.319 2.077-30.133 6.256-36.407zm10.972-7.193c8.381 9.547 33.124 3.235 43.21.048-5.532-3.627-8.519-7.448-10.109-10.7-2.333-4.791-3.614-15.158 5.51-13.933 39.406 5.4 48.533-11.336 58.336-29.373 8.1-14.865 16.6-30.49 38.029-38.895-20.5-35.341-79.6 4.5-89.851 28.833a6.54 6.54 0 0 1-6.163 4.681 6.665 6.665 0 0 1-6.488-6.814 129.339 129.339 0 0 1 3.452-22.595A59.146 59.146 0 0 0 43.121 45.8c-5.371 9.878-7.8 21.151-5.111 31.31a6.993 6.993 0 0 1-2.663 7.476 6.28 6.28 0 0 1-8.942-1.937c-2.895-4.608-6.091-9.067-8.543-13.956-5.51 15.558-7.587 36.207.631 51.094z"/></svg>