<svg xmlns="http://www.w3.org/2000/svg" viewBox="0 0 43 44"><defs><style>.a{fill:#fff;}</style></defs><title>arrow-down</title><path class="a" d="M24.19,43.2l-.1.12,0,0-.07.07-.07.06-.28.2h0l-.09,0-.08,0a2.19,2.19,0,0,1-.31.14h0l-.2,0-.21,0-.15,0h-.13l-.14,0-.21,0-.21,0h0a2.14,2.14,0,0,1-.31-.14l-.07,0-.09,0h0a1.78,1.78,0,0,1-.27-.2L21,43.41,21,43.34l0,0-.11-.12,0,0L1.7,21.42a3,3,0,0,1,0-3.85,2.2,2.2,0,0,1,3.38,0l15,17.13v-32A2.57,2.57,0,0,1,22.5,0a2.57,2.57,0,0,1,2.39,2.72v32l15-17.13a2.2,2.2,0,0,1,3.38,0,3,3,0,0,1,0,3.85L24.19,43.2Zm-1.62.8h0Z" transform="translate(-1)"/></svg>