<svg xmlns="http://www.w3.org/2000/svg" xmlns:xlink="http://www.w3.org/1999/xlink" viewBox="0 0 267 400"><defs><style>.a{fill:none;}.b{clip-path:url(#a);}.c{fill:#b5b4b2;}.d{fill:#494846;}.e{fill:#f8f8f8;}.f{fill:#85898a;}.g{opacity:0.1;fill:url(#b);}</style><clipPath id="a"><rect class="a" width="200" height="200"/></clipPath><pattern id="b" width="200" height="200" patternTransform="translate(81.45 183.47)" patternUnits="userSpaceOnUse" viewBox="0 0 200 200"><rect class="a" width="200" height="200"/><g class="b"><rect class="c" width="200" height="200"/><path class="d" d="M153.64,60.55c-2.62,1.92-6,2.43-9.1,3.35s-6.38,2.63-7.46,5.69c-1.3,3.69,1.34,7.88,4.9,9.51s7.69,1.3,11.54.58,7.69-1.81,11.6-1.58c3.65.22,7.13,1.58,10.75,2.09s7.76,0,10.09-2.86c1.9-2.3,2.13-5.59,1.5-8.51-1.31-6.06-5.76-10.88-10-15.37-3.08-3.24-6.39-6.63-10.71-7.8-3.59-1-9.16.31-10.4,4.31S158.06,57.3,153.64,60.55Z"/><path class="d" d="M102.69,142.06a35.66,35.66,0,0,1-13.94,2.08c-4.66-.09-9.7-.56-13.63,2-5.7,3.66-5.94,13-1,17.58s13.46,4.09,18.54-.4c1.94-1.72,3.44-3.89,5.43-5.56s4.74-2.8,7.17-1.9c2.58,1,3.9,3.89,4.2,6.64s-.14,5.53.26,8.26c.51,3.54,2.72,7,6.13,8.11s7.76-1.2,8-4.77c.3-4.06-4-6.78-5.76-10.47a8.62,8.62,0,0,1,8.93-12.18c3.2.42,5.88,2.56,8.23,4.77S140,160.81,143,162s6.95.74,8.71-2c3.68-5.67-5.33-13.1-2.62-19.3,1.51-3.45,6.16-4.5,9.75-3.34s6.38,3.91,9.21,6.4,6.06,4.9,9.82,5.15c5.47.35,10.44-4.5,11.11-9.93s-2.38-10.9-6.85-14.06-10.15-4.25-15.62-4.08c-3.38.1-6.83.65-10.11-.17s-6.44-3.54-6.33-6.92c.14-4.6,5.71-7.14,7.15-11.51,1.17-3.55-.79-7.52-3.72-9.84s-6.64-3.35-10.25-4.32c-8.06-2.18-15.78-3-21.3,4.29-3.25,4.31-6.12,9.6-7.09,14.95C112.46,120.26,118.37,135.8,102.69,142.06Z"/><path class="e" d="M107.8,91c-5.05,3.49-11.28,4.85-17.39,5.4S78.13,96.78,72,97.52c-2.45.3-5.27,1-6.24,3.3-.83,1.93.09,4.17,1.32,5.88s2.82,3.21,3.57,5.17c1.49,3.89-.85,8.38-4.26,10.78s-7.63,3.23-11.68,4.19c-3.45.82-7.44,2.33-8.25,5.78s2.11,6.59,5.21,8.22c8.39,4.4,19.82,1.73,25.39-5.93,2.64-3.63,4.15-8.24,7.8-10.84,4.73-3.37,11.29-2.14,16.7,0s10.83,5.05,16.62,4.67c4.2-.28,8.89-3.75,7.78-7.81-.83-3-4.46-4.58-5.53-7.54s.82-6.24,3.45-7.89,5.82-2.06,8.89-2.53,6.27-1.11,8.66-3.1A9.15,9.15,0,0,0,138.11,84c-3.37-1-8.07-.59-9.16-3.92a12.78,12.78,0,0,1-.19-3.47,7.52,7.52,0,0,0-6.8-6.94c-6.28-.39-6.18,3.86-6.21,8.09C115.72,83.16,112.1,88.06,107.8,91Z"/><path class="f" d="M308.36,6.42c-6.06,3.25-12.68,6.23-19.53,5.63-6.21-.54-11.76-3.94-17.67-5.92A40.17,40.17,0,0,0,237.68,10a7.79,7.79,0,0,0-3.18,3.08c-1.24,2.67.7,6,3.38,7.2s5.79.93,8.69.45c10-1.63,19.8-5,29.94-5.82s21.27,1.35,28,8.95c3.29,3.69,5.19,9.62,2.05,13.44-2.3,2.81-6.4,3.33-10,3-14.18-1.31-26.45-12.26-40.69-12-3,.05-6.37.83-8.06,3.34-1,1.51-1.26,3.38-1.87,5.1-2.48,7-10.7,10.4-18.15,10.49S213.11,45,205.68,44.56s-15.81,1.52-19.77,7.82a13.59,13.59,0,0,0,11.35,20.82c8.62.1,15.18-7.64,23.32-10.47,16.63-5.77,34.18,9.92,51.51,6.85,7.66-1.36,15.68-6.28,22.61-2.74,5.55,2.84,7.33,9.74,10.63,15A25.71,25.71,0,0,0,343.53,88c4.21-3.49,7.38-9.17,5.63-14.35-1.65-4.88-6.83-7.42-11.17-10.21-5.83-3.74-11-9-13.14-15.57s-.9-14.54,4.28-19.14c3.4-3,8-4.3,12.3-5.62s8.87-2.92,11.88-6.33,3.77-9.21.45-12.32c-3.12-2.92-9-3-10.31-7.05-.7-2.18.43-4.6,2.13-6.12a21.7,21.7,0,0,1,6-3.3,69.44,69.44,0,0,0,19.07-12.51c2.22-2,4.42-4.49,4.7-7.5a8.43,8.43,0,0,0-4.16-7.6,14.52,14.52,0,0,0-8.79-1.78c-14.07,1.09-23.66,13.77-29.14,25.57C327.91-4.37,319.48.47,308.36,6.42Z"/><path class="d" d="M253.7,59.52C244.29,66,242.93,80,234,87.21c-7.12,5.71-17.15,5.6-26.25,4.9s-18.9-1.56-26.74,3.11a13.61,13.61,0,0,0-6,6.52,8,8,0,0,0,1.42,8.39c3.12,3.13,8.29,2.32,12.58,1.29l16-3.85c4-1,8.82-1.76,11.86,1.05,5,4.63.86,14.88,6.51,18.69,2.7,1.82,6.38,1.09,9.44,2.21,4.34,1.58,6.58,6.8,5.88,11.37s-3.74,8.47-7.25,11.48-7.55,5.34-11.18,8.2c-3,2.35-5.93,6-4.62,9.57.72,1.94,2.56,3.25,4.44,4.12a19.49,19.49,0,0,0,27.67-16.48c.36-6-1.94-12.43.87-17.72,2.09-3.93,6.47-6,10.73-7.32s8.77-2.08,12.5-4.5,6.51-7.11,5-11.29c-1.62-4.48-7-6.11-11.64-7.21s-10-2.93-11.37-7.5a9.24,9.24,0,0,1,1.78-7.88,24.69,24.69,0,0,1,6.27-5.48c4.53-3.08,9.79-6.06,15.17-5,7.25,1.37,11.32,9.24,17.87,12.63s15.17,1.4,19.39-4.47,3.1-15-2.58-19.47c-3.78-3-8.78-3.76-13.45-4.91s-9.64-3.11-11.95-7.34c-.68-1.25-1.14-2.7-2.24-3.6-1.63-1.33-3.69.35-5.36.42-2.78.12-5.94-1-8.77-1.16C264.38,55.61,258.48,56.22,253.7,59.52Z"/><path class="f" d="M208.94,127.27c4.72-2.38,8.62-6.74,13.86-7.45,6.58-.88,12.85,5.19,13.26,11.82s-4.16,12.94-10.17,15.79c-2.58,1.22-5.38,1.91-7.94,3.17s-5,3.28-5.66,6c-1.8,7.1,8.07,12.28,8.49,19.59.34,5.81-5.63,10.24-11.39,11.05s-11.57-.77-17.39-.92-12.43,1.74-14.93,7c-.79,1.66-1.09,3.52-2,5.09-2.08,3.45-7,4.52-10.7,3s-6.39-5-7.8-8.78a22.67,22.67,0,0,1,6.86-24.92c4.45-3.57,10.09-5.28,14.88-8.37s9-8.55,7.61-14.09c-.77-3.19-3.19-5.67-5.32-8.17-4.59-5.39-5.38-16.28,4.39-13.27C193.46,126.51,199.67,131.94,208.94,127.27Z"/><path class="d" d="M53.7,59.52C44.29,66,42.93,80,34,87.21c-7.12,5.71-17.15,5.6-26.25,4.9S-11.15,90.55-19,95.22a13.61,13.61,0,0,0-6,6.52,8,8,0,0,0,1.42,8.39c3.12,3.13,8.29,2.32,12.58,1.29l16-3.85c4-1,8.82-1.76,11.86,1.05,5,4.63.86,14.88,6.51,18.69,2.7,1.82,6.38,1.09,9.44,2.21,4.34,1.58,6.58,6.8,5.88,11.37s-3.74,8.47-7.25,11.48-7.55,5.34-11.18,8.2c-3,2.35-5.93,6-4.62,9.57.72,1.94,2.56,3.25,4.44,4.12a19.84,19.84,0,0,0,18.19-.93,19.84,19.84,0,0,0,9.48-15.55c.36-6-1.94-12.43.87-17.72,2.09-3.93,6.47-6,10.73-7.32s8.77-2.08,12.5-4.5,6.51-7.11,5-11.29c-1.62-4.48-7-6.11-11.64-7.21s-10-2.93-11.37-7.5a9.23,9.23,0,0,1,1.78-7.88,24.69,24.69,0,0,1,6.27-5.48c4.53-3.08,9.79-6.06,15.17-5C84.36,85.22,88.43,93.08,95,96.47s15.17,1.4,19.39-4.47,3.1-15-2.58-19.47c-3.78-3-8.78-3.76-13.45-4.91s-9.64-3.11-11.95-7.34c-.68-1.25-1.14-2.7-2.24-3.6-1.63-1.33-3.69.35-5.36.42-2.78.12-5.94-1-8.77-1.16C64.38,55.61,58.48,56.22,53.7,59.52Z"/><path class="f" d="M8.94,127.27c4.72-2.38,8.62-6.74,13.86-7.45,6.58-.88,12.85,5.19,13.26,11.82s-4.16,12.94-10.17,15.79c-2.58,1.22-5.38,1.91-7.94,3.17s-5,3.28-5.66,6c-1.8,7.1,8.07,12.28,8.49,19.59.34,5.81-5.63,10.24-11.39,11.05s-11.57-.77-17.39-.92-12.43,1.74-14.93,7c-.79,1.66-1.09,3.52-2,5.09-2.08,3.45-7,4.52-10.7,3s-6.39-5-7.8-8.78a22.67,22.67,0,0,1,6.86-24.92c4.45-3.57,10.09-5.28,14.88-8.37s9-8.55,7.61-14.09c-.77-3.19-3.19-5.67-5.32-8.17-4.59-5.39-5.38-16.28,4.39-13.27C-6.54,126.51-.33,131.94,8.94,127.27Z"/><path class="e" d="M52.24,187.41c-7.8-2-15.81-4.89-23.68-3.24-6.22,1.3-12.06,6.2-12.6,12.53A15.39,15.39,0,0,0,18,205.22a22.67,22.67,0,0,0,6.49,7.45c1.77,1.3,3.79,2.4,5,4.27,2.72,4.35-.62,9.91-4.11,13.68s-7.6,8.3-6.37,13.28c.89,3.6,4.44,6,8,6.87a18,18,0,0,0,17-5c3.58-3.76,5.41-9,9.23-12.48,4.15-3.81,10-5,15.67-5.33s11.32.2,16.86-.82c4.44-.82,8.93-2.82,11.36-6.62s1.91-9.64-1.93-12c-1.79-1.1-4-1.31-6-1.9s-4.12-1.82-4.61-3.86c-.62-2.56,1.58-5,3.91-6.19s5-1.88,6.93-3.71c2.67-2.59,1.95-6.17-1.44-6.5-3.67-.36-9.47,2.66-13.39,3.13A78.63,78.63,0,0,1,52.24,187.41Z"/><path class="d" d="M217.35,196.63c-8.52-1.79-17-4.51-25.7-4.33-5.08.1-10.47,1.39-13.91,5.13s-3.94,10.4,0,13.59c2.86,2.31,6.89,2.19,10.57,2.33s7.89,1,9.62,4.26c3.53,6.65-7,14.5-3.83,21.34,1.94,4.23,8.21,4.69,12.08,2.12s5.92-7.06,7.86-11.29,4.18-8.67,8.22-11c4.68-2.67,10.48-1.78,15.82-1.07s11.39.95,15.44-2.6c6.9-6,2.27-18.28-6.52-18.91-3.81-.27-7.79,1.09-11.55,1.53A56,56,0,0,1,217.35,196.63Z"/><path class="f" d="M108.36,206.43c-6.06,3.25-12.68,6.23-19.53,5.63-6.21-.54-11.76-3.94-17.67-5.92A40.17,40.17,0,0,0,37.68,210a7.79,7.79,0,0,0-3.18,3.08c-1.24,2.67.7,6,3.38,7.2s5.79.93,8.69.45c10-1.63,19.8-5,29.94-5.82s21.27,1.35,28,8.95c3.29,3.69,5.19,9.62,2.05,13.44-2.3,2.81-6.4,3.33-10,3-14.18-1.31-26.45-12.26-40.69-12-3,.05-6.37.83-8.06,3.34-1,1.51-1.26,3.38-1.87,5.1-2.48,7-10.7,10.4-18.15,10.49S13.11,245,5.68,244.56s-15.81,1.52-19.77,7.82a13.87,13.87,0,0,0-.42,13.74,13.87,13.87,0,0,0,11.78,7.08c8.62.1,15.18-7.64,23.32-10.47,16.63-5.77,34.18,9.92,51.51,6.85,7.66-1.36,15.68-6.28,22.61-2.74,5.55,2.84,7.33,9.74,10.63,15a25.71,25.71,0,0,0,38.2,6.18c4.21-3.49,7.38-9.17,5.63-14.35-1.65-4.88-6.83-7.42-11.17-10.21-5.83-3.74-11-9-13.14-15.57s-.9-14.54,4.28-19.14c3.4-3,8-4.3,12.3-5.62s8.87-2.92,11.88-6.33,3.77-9.21.45-12.32c-3.12-2.92-9-3-10.31-7.05-.7-2.18.43-4.6,2.13-6.12a21.7,21.7,0,0,1,6-3.3,69.44,69.44,0,0,0,19.07-12.51c2.22-2,4.42-4.49,4.7-7.5a8.43,8.43,0,0,0-4.16-7.6,14.52,14.52,0,0,0-8.79-1.78c-14.07,1.09-23.66,13.77-29.14,25.57C127.91,195.63,119.48,200.47,108.36,206.43Z"/><path class="d" d="M17.35,196.63c-8.52-1.79-17-4.51-25.7-4.33-5.08.1-10.47,1.39-13.91,5.13s-3.94,10.4,0,13.59c2.86,2.31,6.89,2.19,10.57,2.33s7.89,1,9.62,4.26c3.53,6.65-7,14.5-3.83,21.34,1.94,4.23,8.21,4.69,12.08,2.12s5.92-7.06,7.86-11.29,4.18-8.67,8.22-11c4.68-2.67,10.48-1.78,15.82-1.07s11.39.95,15.44-2.6c6.9-6,2.27-18.28-6.52-18.91-3.81-.27-7.79,1.09-11.55,1.53A56,56,0,0,1,17.35,196.63Z"/><path class="e" d="M52.24-12.59c-7.8-2-15.81-4.89-23.68-3.24C22.35-14.52,16.5-9.62,16-3.29A15.38,15.38,0,0,0,18,5.22a22.67,22.67,0,0,0,6.49,7.45c1.77,1.3,3.79,2.4,5,4.27,2.72,4.35-.62,9.91-4.11,13.68s-7.6,8.3-6.37,13.28c.89,3.6,4.44,6,8,6.87a18,18,0,0,0,17-5c3.58-3.76,5.41-9,9.23-12.48,4.15-3.81,10-5,15.67-5.33s11.32.2,16.86-.82c4.44-.82,8.93-2.82,11.36-6.62s1.91-9.64-1.93-12c-1.79-1.1-4-1.31-6-1.9s-4.12-1.82-4.61-3.86c-.62-2.56,1.58-5,3.91-6.19s5-1.88,6.93-3.71c2.67-2.59,1.95-6.17-1.44-6.5C90.37-14,84.58-11,80.66-10.48A78.63,78.63,0,0,1,52.24-12.59Z"/><path class="d" d="M217.35-3.37c-8.52-1.79-17-4.51-25.7-4.33-5.08.1-10.47,1.39-13.91,5.13s-3.94,10.4,0,13.59c2.86,2.31,6.89,2.19,10.57,2.33s7.89,1,9.62,4.26c3.53,6.65-7,14.5-3.83,21.34,1.94,4.23,8.21,4.69,12.08,2.12s5.92-7.06,7.86-11.29,4.18-8.67,8.22-11c4.68-2.67,10.48-1.78,15.82-1.07s11.39.95,15.44-2.6c6.9-6,2.27-18.28-6.52-18.91-3.81-.27-7.79,1.08-11.55,1.53A56,56,0,0,1,217.35-3.37Z"/><path class="f" d="M108.36,6.42c-6.06,3.25-12.68,6.23-19.53,5.63-6.21-.54-11.76-3.94-17.67-5.92A40.17,40.17,0,0,0,37.68,10a7.79,7.79,0,0,0-3.18,3.08c-1.24,2.67.7,6,3.38,7.2s5.79.93,8.69.45c10-1.63,19.8-5,29.94-5.82s21.27,1.35,28,8.95c3.29,3.69,5.19,9.62,2.05,13.44-2.3,2.81-6.4,3.33-10,3C82.42,39,70.14,28.06,55.91,28.31c-3,.05-6.37.83-8.06,3.34-1,1.51-1.26,3.38-1.87,5.1-2.48,7-10.7,10.4-18.15,10.49S13.11,45,5.68,44.56s-15.81,1.52-19.77,7.82a13.87,13.87,0,0,0-.42,13.74A13.87,13.87,0,0,0-2.74,73.19c8.62.1,15.18-7.64,23.32-10.47C37.21,57,54.76,72.64,72.09,69.57c7.66-1.36,15.68-6.28,22.61-2.74,5.55,2.84,7.33,9.74,10.63,15A25.71,25.71,0,0,0,143.53,88c4.21-3.49,7.38-9.17,5.63-14.35-1.65-4.88-6.83-7.42-11.17-10.21-5.83-3.74-11-9-13.14-15.57s-.9-14.54,4.28-19.14c3.4-3,8-4.3,12.3-5.62s8.87-2.92,11.88-6.33,3.77-9.21.45-12.32c-3.12-2.92-9-3-10.31-7.05-.7-2.18.43-4.6,2.13-6.12a21.7,21.7,0,0,1,6-3.3,69.44,69.44,0,0,0,19.07-12.51c2.22-2,4.42-4.49,4.7-7.5a8.43,8.43,0,0,0-4.16-7.6,14.52,14.52,0,0,0-8.79-1.78c-14.07,1.09-23.66,13.77-29.14,25.57C127.91-4.37,119.48.47,108.36,6.42Z"/><path class="d" d="M17.35-3.37C8.83-5.16.36-7.88-8.35-7.7c-5.08.1-10.47,1.39-13.91,5.13s-3.94,10.4,0,13.59c2.86,2.31,6.89,2.19,10.57,2.33s7.89,1,9.62,4.26C1.47,24.26-9,32.11-5.9,39-4,43.18,2.32,43.65,6.19,41.07S12.11,34,14.05,29.78s4.18-8.67,8.22-11c4.68-2.67,10.48-1.78,15.82-1.07s11.39.95,15.44-2.6c6.9-6,2.27-18.28-6.52-18.91C43.2-4,39.23-2.69,35.47-2.25A56,56,0,0,1,17.35-3.37Z"/><path class="e" d="M176.39,18.29c-4.19,4.13-10.51,5.36-16.38,5s-11.56-2.09-17.37-3-12.36-.77-16.19,3.55a11,11,0,0,0-1.3,12,12.93,12.93,0,0,0,10.38,6.64c4.1.32,8.94-.93,11.8,2,2.62,2.7,1.71,7.06,1.35,10.81a17.33,17.33,0,0,0,1.62,9.89,9.85,9.85,0,0,0,8.08,5.37c3.39.07,6.81-2.54,7.07-5.92.3-4-3.43-7.31-3.61-11.3s3.54-7.42,7.49-7.63S177,48.06,179,51.49c1.23,2.15,1.86,4.61,3.25,6.66s4,3.66,6.28,2.82c3.32-1.2,3.36-6,2-9.24s-3.41-6.76-2.23-10.09c.78-2.2,2.81-3.66,4.31-5.44,3.47-4.13,4-10.09,2.81-15.34-.79-3.34-4-14.11-8.23-14.63S179,15.74,176.39,18.29Z"/><path class="f" d="M104.53,145.87a42.25,42.25,0,0,1-31.25,8C67,153,61,150.67,54.71,150s-13.39.91-17.07,6.06a12.68,12.68,0,0,0,2.05,16.45c5.37,4.54,14.19,4.19,18.33,9.88,1.35,1.85,2,4.12,3.15,6.09,4.16,7.07,14.89,8.54,21.55,3.74,2.94-2.12,5.19-5.18,8.44-6.79,4.54-2.24,9.91-1.17,15-1s11.06-1.16,13-5.86c2.34-5.8-3.26-12-2.52-18.24.49-4.18,3.77-7.48,7.2-9.91s7.28-4.44,10-7.68c2.07-2.5,3.18-6.55.84-8.81-1.54-1.49-3.95-1.55-6.08-1.3a32.11,32.11,0,0,0-18.39,8.65A65.68,65.68,0,0,1,104.53,145.87Z"/><path class="e" d="M160.65,87.5c-4.53,1.1-8.83,3.92-10.76,8.16s-.93,9.9,2.91,12.54c1.3.89,2.9,1.48,3.72,2.82,1.57,2.56-.67,5.64-1.58,8.5-1.92,6,3.51,13,9.82,13s11.68-6.41,11-12.69c-.29-2.66-1.46-5.4-.53-7.91,1.5-4.08,7-4.49,10.78-6.59,5.7-3.16,9-13.46,1.4-16.11-3.16-1.1-7.06-.67-10.35-1.12C171.52,87.32,166.2,86.15,160.65,87.5Z"/><path class="e" d="M132.92,155.81c-3.51,3-7.47,5.91-12.06,6.3-4,.34-8.95-.89-11.24,2.38-1.43,2-.87,4.93.42,7.07a13,13,0,0,0,12.8,6c3.64-.56,7-2.7,10.72-2.41,3.13.25,5.82,2.22,8.37,4.06s5.37,3.7,8.51,3.65,6.39-3,5.54-6-5.23-4.95-4.41-8c.71-2.65,4.48-2.65,7.1-1.82s6,1.68,7.66-.54c1.28-1.75.31-4.4-1.45-5.66l-.22-.15a5.42,5.42,0,0,1-1.74-7.07,3.69,3.69,0,0,0,.32-3.38c-1.12-2.31-5.6-2.44-7.7-2.63C146,146.81,140,149.6,132.92,155.81Z"/></g></pattern></defs><title>background_haki</title><rect class="g" width="267" height="400"/></svg>