<svg xmlns="http://www.w3.org/2000/svg" width="166.034" height="169.988" viewBox="0 0 168 172">
  <metadata><?xpacket begin="﻿" id="W5M0MpCehiHzreSzNTczkc9d"?>
<x:xmpmeta xmlns:x="adobe:ns:meta/" x:xmptk="Adobe XMP Core 5.6-c138 79.159824, 2016/09/14-01:09:01        ">
   <rdf:RDF xmlns:rdf="http://www.w3.org/1999/02/22-rdf-syntax-ns#">
      <rdf:Description rdf:about=""/>
   </rdf:RDF>
</x:xmpmeta>
                                                                                                    
                                                                                                    
                                                                                                    
                                                                                                    
                                                                                                    
                                                                                                    
                                                                                                    
                                                                                                    
                                                                                                    
                                                                                                    
                                                                                                    
                                                                                                    
                                                                                                    
                                                                                                    
                                                                                                    
                                                                                                    
                                                                                                    
                                                                                                    
                                                                                                    
                                                                                                    
                           
<?xpacket end="w"?></metadata>
<defs>
    <style>
      .cls-1 {
        fill: #2b79cf;
        fill-rule: evenodd;
      }
    </style>
  </defs>
  <path id="Перо" class="cls-1" d="M7.476,129.234c-13-23.634-7.68-58.8,6.01-80.7A6.168,6.168,0,0,1,22.4,46.621a6.914,6.914,0,0,1,2.669,4.153l0.024-.013c0.278,1.272.556,2.444,0.858,3.53a69.845,69.845,0,0,1,5.732-14.5c7.357-13.882,19.238-25.455,31.98-30.707a6.314,6.314,0,0,1,8.307,4,7.405,7.405,0,0,1-.117,5.238c-1.3,3.119-2.364,6.2-3.3,9.205A107.94,107.94,0,0,1,102.3,5.305c25.388-10.291,54.371-7.211,65.279,23.843a7.09,7.09,0,0,1-3.76,8.907l-0.627.224c-21.581,6.135-29.632,21.264-37.246,35.593-10.6,19.943-20.536,38.6-55.809,37.966a73.7,73.7,0,0,0,9.491,3.765,7.01,7.01,0,0,1,4.246,8.63,6.832,6.832,0,0,1-3.225,4.128c-16.244,9.841-44.717,16.875-63,9.092C15.064,141.4,11.167,150,13.857,163.407v0.038c1.1,5.512.418,7.484-1.39,8.316a6.883,6.883,0,0,1-3.667,0c-2.184-.679-6.547-3.274-7.542-5.473-3.826-8.467,2.065-30.668,6.219-37.054h0Zm10.907-7.32c8.331,9.716,32.928,3.292,42.954.049-5.5-3.692-8.469-7.581-10.049-10.887-2.319-4.876-3.593-15.427,5.477-14.18C95.938,102.4,105.011,85.358,114.756,67c8.053-15.129,16.5-31.031,37.8-39.585C132.184-8.552,73.43,31.994,63.241,56.761a6.526,6.526,0,0,1-6.126,4.764,6.714,6.714,0,0,1-6.449-6.935,134.581,134.581,0,0,1,3.431-23,60.059,60.059,0,0,0-11.23,15.014c-5.34,10.053-7.751,21.527-5.08,31.866h0a7.207,7.207,0,0,1-2.647,7.609,6.159,6.159,0,0,1-8.89-1.972c-2.878-4.689-6.055-9.228-8.493-14.2C12.279,85.747,10.214,106.76,18.383,121.914Z"/>
</svg>
