<svg xmlns="http://www.w3.org/2000/svg" width="171.964" height="169.988" viewBox="0 0 174 172">
  <metadata><?xpacket begin="﻿" id="W5M0MpCehiHzreSzNTczkc9d"?>
<x:xmpmeta xmlns:x="adobe:ns:meta/" x:xmptk="Adobe XMP Core 5.6-c138 79.159824, 2016/09/14-01:09:01        ">
   <rdf:RDF xmlns:rdf="http://www.w3.org/1999/02/22-rdf-syntax-ns#">
      <rdf:Description rdf:about=""/>
   </rdf:RDF>
</x:xmpmeta>
                                                                                                    
                                                                                                    
                                                                                                    
                                                                                                    
                                                                                                    
                                                                                                    
                                                                                                    
                                                                                                    
                                                                                                    
                                                                                                    
                                                                                                    
                                                                                                    
                                                                                                    
                                                                                                    
                                                                                                    
                                                                                                    
                                                                                                    
                                                                                                    
                                                                                                    
                                                                                                    
                           
<?xpacket end="w"?></metadata>
<defs>
    <style>
      .cls-1 {
        fill: #d8332f;
        fill-rule: evenodd;
      }
    </style>
  </defs>
  <path id="Тучка" class="cls-1" d="M70.353,32.268a5.46,5.46,0,0,1,0,7.77,5.564,5.564,0,0,1-7.828,0L51.048,28.67a5.466,5.466,0,0,1,0-7.76,5.576,5.576,0,0,1,7.838,0L70.353,32.268h0Zm-29.157,91a5.559,5.559,0,0,1,7.548-1.988,5.453,5.453,0,0,1,2.024,7.482l-23.6,40.51a5.551,5.551,0,0,1-7.548,2A5.47,5.47,0,0,1,17.6,163.78L41.2,123.272h0Zm24.829,0L42.432,163.78a5.469,5.469,0,0,0,2.005,7.492,5.561,5.561,0,0,0,7.558-2l23.594-40.51a5.452,5.452,0,0,0-2.016-7.482,5.555,5.555,0,0,0-7.548,1.988h0Zm24.829,0a5.557,5.557,0,0,1,7.55-1.988,5.461,5.461,0,0,1,2.014,7.482l-23.6,40.51a5.549,5.549,0,0,1-7.548,2,5.472,5.472,0,0,1-2.014-7.492l23.6-40.508h0Zm-67.069,7.1a42.915,42.915,0,0,1-9.435-13.957l-0.008-.01,0.008-.011a42.91,42.91,0,0,1,0-32.907l0.1-.277a43.21,43.21,0,0,1,9.335-13.69,43.683,43.683,0,0,1,14.1-9.361l0.259-.119a43.687,43.687,0,0,1,16.334-3.124A44.22,44.22,0,0,1,66.963,58.7,43.645,43.645,0,0,1,78.35,63.979a44.261,44.261,0,0,1,9.215,8.067l0.01,0.01-0.01.01a43.472,43.472,0,0,1,6.541,10.26,5.544,5.544,0,0,0,5.7,3.193v0.01l1.048-.138,1.066-.079,0.19-.021,0.788-.04,0.08-.01,0.847-.01v0.02A28.984,28.984,0,0,1,124.421,93.7a28.624,28.624,0,0,1,0,40.816,29.569,29.569,0,0,1-7.748,5.527l-0.021.01v-0.01a29.487,29.487,0,0,1-9.1,2.717,5.467,5.467,0,1,0,1.387,10.845,40.212,40.212,0,0,0,12.6-3.747h-0.01a40.443,40.443,0,0,0,10.72-7.582,39.553,39.553,0,0,0,8.714-43.387,39.122,39.122,0,0,0-4.2-7.6,39.02,39.02,0,0,0,3.411-7.574,39.513,39.513,0,0,0-9.793-40.469A40.439,40.439,0,0,0,81.751,37l-0.4.247A40.192,40.192,0,0,0,69.505,48.026a54.88,54.88,0,0,0-35.58,1.9l-0.288.109a54.438,54.438,0,0,0-17.68,11.714A53.714,53.714,0,0,0,4.281,78.966l-0.141.316a53.527,53.527,0,0,0,0,41.32H4.15a53.975,53.975,0,0,0,11.808,17.536,5.584,5.584,0,0,0,7.828,0,5.463,5.463,0,0,0,0-7.77h0Zm56.37-78.052a29.515,29.515,0,0,1,6.831-5.655l0.349-.178a29.285,29.285,0,0,1,35.21,4.537,28.737,28.737,0,0,1,7.119,29.31c-0.277.848-.6,1.68-0.955,2.5a40.531,40.531,0,0,0-24.881-8.562v0.02h-0.09l-0.947.021h-0.35a54.745,54.745,0,0,0-6.482-9.372l-0.018.01a54.116,54.116,0,0,0-11.5-10.1c-1.386-.911-2.812-1.751-4.289-2.53h0Zm72.1,24.563a5.491,5.491,0,1,1,0-10.981h16.2a5.491,5.491,0,1,1,0,10.981h-16.2ZM141.443,40.058a5.6,5.6,0,0,1-7.838,0,5.459,5.459,0,0,1,0-7.77L145.082,20.91a5.576,5.576,0,0,1,7.838,0,5.477,5.477,0,0,1,0,7.77L141.443,40.058h0ZM107.509,21.572a5.54,5.54,0,0,1-11.079,0V5.49a5.54,5.54,0,0,1,11.079,0V21.572Z"/>
</svg>
