<svg xmlns="http://www.w3.org/2000/svg" width="147.257" height="169.988" viewBox="0 0 149 172">
  <metadata><?xpacket begin="﻿" id="W5M0MpCehiHzreSzNTczkc9d"?>
<x:xmpmeta xmlns:x="adobe:ns:meta/" x:xmptk="Adobe XMP Core 5.6-c138 79.159824, 2016/09/14-01:09:01        ">
   <rdf:RDF xmlns:rdf="http://www.w3.org/1999/02/22-rdf-syntax-ns#">
      <rdf:Description rdf:about=""/>
   </rdf:RDF>
</x:xmpmeta>
                                                                                                    
                                                                                                    
                                                                                                    
                                                                                                    
                                                                                                    
                                                                                                    
                                                                                                    
                                                                                                    
                                                                                                    
                                                                                                    
                                                                                                    
                                                                                                    
                                                                                                    
                                                                                                    
                                                                                                    
                                                                                                    
                                                                                                    
                                                                                                    
                                                                                                    
                                                                                                    
                           
<?xpacket end="w"?></metadata>
<defs>
    <style>
      .cls-1 {
        fill: #d8332f;
        fill-rule: evenodd;
      }
    </style>
  </defs>
  <path id="Мешок" class="cls-1" d="M147.6,161.254c-3.032-3.953-6.02-10.383-8.231-17.48a72.074,72.074,0,0,1-3.579-20.623V91.929A65.294,65.294,0,0,0,117.776,46.7,60.713,60.713,0,0,0,97.919,32.821a59.456,59.456,0,0,0-10.691-3.382l17.349-18.121a6.845,6.845,0,0,0,1.87-4.692A6.5,6.5,0,0,0,100.109,0H48.884a6.2,6.2,0,0,0-4.489,1.953,6.853,6.853,0,0,0,0,9.36l17.37,18.121a58.308,58.308,0,0,0-10.692,3.382A60.555,60.555,0,0,0,31.194,46.7,64.416,64.416,0,0,0,17.881,67.5a65.918,65.918,0,0,0-4.674,24.432v31.222a72.833,72.833,0,0,1-3.579,20.623c-2.166,6.93-5.038,13.217-8.026,17.17a6.872,6.872,0,0,0-1.618,4.432A6.464,6.464,0,0,0,6.3,171.994H142.669v-0.022a6.163,6.163,0,0,0,3.966-1.453A6.786,6.786,0,0,0,147.6,161.254ZM84.812,13.247L74.485,24.035,64.157,13.247H84.812ZM17.493,158.779a93.821,93.821,0,0,0,4.148-10.932,85.859,85.859,0,0,0,4.218-24.7V91.929a52.312,52.312,0,0,1,3.693-19.36,50.679,50.679,0,0,1,10.6-16.5,47.974,47.974,0,0,1,15.708-11.05A46.493,46.493,0,0,1,74.44,41.347H74.6a46.1,46.1,0,0,1,18.511,3.668,48.085,48.085,0,0,1,15.73,11.05,51.82,51.82,0,0,1,14.27,35.865v31.222a86.664,86.664,0,0,0,4.218,24.7,93.973,93.973,0,0,0,4.171,10.932H17.493ZM95.459,108.6a12.3,12.3,0,0,0-3.4-8.477,11.427,11.427,0,0,0-7.774-3.572H78.269V75.356h5.654a3.918,3.918,0,0,1,2.783,1.236,4.192,4.192,0,0,1,1.162,2.882,3.8,3.8,0,1,0,7.591,0,12.222,12.222,0,0,0-3.42-8.5,11.321,11.321,0,0,0-8.117-3.548H78.269V63.994a3.8,3.8,0,1,0-7.591,0v3.431h-5.63a11.275,11.275,0,0,0-8.114,3.548,12.211,12.211,0,0,0-3.42,8.5V92.429a12.26,12.26,0,0,0,3.4,8.5,11.308,11.308,0,0,0,7.773,3.549l0.364,0.024h5.63v21.148h-5.63a3.827,3.827,0,0,1-2.78-1.217,4.151,4.151,0,0,1-1.139-2.88,3.811,3.811,0,1,0-7.615,0,12.212,12.212,0,0,0,3.42,8.477,11.2,11.2,0,0,0,8.114,3.572h5.63v3.431a3.8,3.8,0,1,0,7.591,0V133.6h5.677a11.24,11.24,0,0,0,8.114-3.572,12.213,12.213,0,0,0,3.42-8.477v-8.835l-0.021-.31V108.6ZM70.677,96.55h-5.63a3.8,3.8,0,0,1-2.757-1.239A4.1,4.1,0,0,1,61.1,92.429V79.475a4.182,4.182,0,0,1,1.162-2.882,3.913,3.913,0,0,1,2.78-1.236h5.63V96.55Zm17.19,25.006a4.153,4.153,0,0,1-1.141,2.88,3.827,3.827,0,0,1-2.78,1.217H78.269V104.505h5.654a3.834,3.834,0,0,1,2.759,1.214,4.144,4.144,0,0,1,1.186,2.88v12.957Z"/>
</svg>
