<svg xmlns="http://www.w3.org/2000/svg" width="151.21" height="169.988" viewBox="0 0 153 172">
  <metadata><?xpacket begin="﻿" id="W5M0MpCehiHzreSzNTczkc9d"?>
<x:xmpmeta xmlns:x="adobe:ns:meta/" x:xmptk="Adobe XMP Core 5.6-c138 79.159824, 2016/09/14-01:09:01        ">
   <rdf:RDF xmlns:rdf="http://www.w3.org/1999/02/22-rdf-syntax-ns#">
      <rdf:Description rdf:about=""/>
   </rdf:RDF>
</x:xmpmeta>
                                                                                                    
                                                                                                    
                                                                                                    
                                                                                                    
                                                                                                    
                                                                                                    
                                                                                                    
                                                                                                    
                                                                                                    
                                                                                                    
                                                                                                    
                                                                                                    
                                                                                                    
                                                                                                    
                                                                                                    
                                                                                                    
                                                                                                    
                                                                                                    
                                                                                                    
                                                                                                    
                           
<?xpacket end="w"?></metadata>
<defs>
    <style>
      .cls-1 {
        fill: #d8332f;
        fill-rule: evenodd;
      }
    </style>
  </defs>
  <path id="Молния" class="cls-1" d="M99.145,68.217h28.883A7.023,7.023,0,0,1,135.255,75a6.6,6.6,0,0,1-3.043,5.51L11.694,170.522a7.569,7.569,0,0,1-10.14-1.086,6.447,6.447,0,0,1-.469-7.79L47.595,81.762H20.064A7.022,7.022,0,0,1,12.836,75,6.5,6.5,0,0,1,14.5,70.669L65.065,2.9a7.381,7.381,0,0,1,5.9-2.876V-0.014h74.819a7.007,7.007,0,0,1,7.228,6.779,6.5,6.5,0,0,1-2.082,4.766L99.145,68.217h0Zm8.241,13.545H83.495V81.749a7.587,7.587,0,0,1-4.7-1.62,6.493,6.493,0,0,1-.78-9.535l52.122-57.051H74.71L33.9,68.217h25.84v0.025a7.565,7.565,0,0,1,3.455.829,6.519,6.519,0,0,1,2.862,9.155L30.619,139.107Z"/>
</svg>
