<svg xmlns="http://www.w3.org/2000/svg" xmlns:xlink="http://www.w3.org/1999/xlink" viewBox="0 0 789.72 273.25"><defs><style>.a,.b{fill:#fff}.a{stroke:#fff;stroke-width:2px}.a,.r{stroke-miterlimit:10}.c{fill:url(#a)}.d{fill:url(#b)}.e{fill:url(#c)}.f{fill:url(#d)}.g{fill:url(#e)}.h{fill:url(#f)}.i{fill:url(#g)}.j{fill:url(#h)}.k{fill:url(#i)}.l{fill:url(#j)}.m{fill:url(#k)}.n{fill:url(#l)}.o{fill:url(#m)}.p{fill:url(#n)}.q{fill:url(#o)}.r{fill:none;stroke:#222;stroke-width:.5px}.s{fill:url(#p)}.t{fill:url(#q)}.u{fill:url(#r)}.v{fill:url(#s)}.w{fill:url(#t)}.x{fill:url(#u)}.y{fill:url(#v)}.z{fill:url(#w)}.aa{fill:url(#x)}.ab{fill:url(#y)}.ac{fill:url(#z)}.ad{fill:url(#aa)}.ae{fill:url(#ab)}.af{fill:url(#ac)}.ag{fill:url(#ad)}.ah{fill:url(#ae)}.ai{fill:url(#af)}.aj{fill:url(#ag)}</style><linearGradient id="a" x1="181.21" y1="70.75" x2="224.55" y2="70.75" gradientUnits="userSpaceOnUse"><stop offset="0"/><stop offset="0" stop-color="#3f4f80"/><stop offset="1" stop-color="#6dabe4"/></linearGradient><linearGradient id="b" x1="210.54" y1="86.25" x2="247.61" y2="91.71" gradientUnits="userSpaceOnUse"><stop offset="0" stop-color="#3f4f80"/><stop offset="1" stop-color="#6dabe4"/></linearGradient><linearGradient id="c" x1="224.85" y1="108.33" x2="244.11" y2="108.33" xlink:href="#b"/><linearGradient id="d" x1="181.21" y1="65.28" x2="224.55" y2="65.28" xlink:href="#a"/><linearGradient id="e" x1="213.97" y1="130.75" x2="240.77" y2="130.75" xlink:href="#b"/><linearGradient id="f" x1="212.68" y1="137.03" x2="239.56" y2="137.03" xlink:href="#b"/><linearGradient id="g" x1="238.75" y1="118.07" x2="261.11" y2="118.07" xlink:href="#b"/><linearGradient id="h" x1="-201.68" y1="113.63" x2="-201.12" y2="113.63" gradientTransform="matrix(-1 0 0 1 59.99 0)" xlink:href="#b"/><linearGradient id="i" x1="265.55" y1="113.64" x2="266.11" y2="113.64" gradientTransform="translate(-5)" xlink:href="#b"/><linearGradient id="j" x1="-657.08" y1="113.63" x2="-656.52" y2="113.63" gradientTransform="translate(917.04)" gradientUnits="userSpaceOnUse"><stop offset="0" stop-color="#834038"/><stop offset=".14" stop-color="#8c423b"/><stop offset=".38" stop-color="#a64945"/><stop offset=".48" stop-color="#b24c49"/><stop offset="1" stop-color="#ce5453"/></linearGradient><linearGradient id="k" x1="720.95" y1="113.64" x2="721.51" y2="113.64" gradientTransform="matrix(-1 0 0 1 982.03 0)" xlink:href="#j"/><linearGradient id="l" x1="234.19" y1="79.11" x2="260.8" y2="79.11" xlink:href="#b"/><linearGradient id="m" x1="285.78" y1="39.04" x2="254.64" y2="14.44" gradientUnits="userSpaceOnUse"><stop offset="0" stop-color="#834038"/><stop offset=".21" stop-color="#8c433b"/><stop offset=".56" stop-color="#a64945"/><stop offset="1" stop-color="#ce5453"/></linearGradient><linearGradient id="n" x1="252.33" y1="29.71" x2="260.78" y2="29.71" xlink:href="#a"/><linearGradient id="o" x1="259.12" y1="58.82" x2="239.85" y2="36.46" xlink:href="#a"/><linearGradient id="p" x1="244.65" y1="61.47" x2="261.55" y2="38.83" xlink:href="#a"/><linearGradient id="q" x1="274.43" y1="64.18" x2="266.7" y2="46.65" xlink:href="#m"/><linearGradient id="r" x1="277.35" y1="57.82" x2="267.25" y2="46.97" xlink:href="#j"/><linearGradient id="s" x1="278.39" y1="65.53" x2="278.39" y2="65.53" xlink:href="#m"/><linearGradient id="t" x1="-48.29" y1="74.46" x2="-4.95" y2="74.46" gradientTransform="matrix(-1 0 0 1 292.07 -3.67)" xlink:href="#j"/><linearGradient id="u" x1="-18.96" y1="86.29" x2="18.11" y2="91.75" gradientTransform="matrix(-1 0 0 1 292.07 0)" xlink:href="#j"/><linearGradient id="v" x1="-4.64" y1="112.04" x2="14.61" y2="112.04" gradientTransform="matrix(-1 0 0 1 292.07 -3.67)" xlink:href="#j"/><linearGradient id="w" x1="-48.29" y1="68.99" x2="-4.95" y2="68.99" gradientTransform="matrix(-1 0 0 1 292.07 -3.67)" xlink:href="#j"/><linearGradient id="x" x1="-3.65" y1="70.98" x2="25.24" y2="66.6" gradientTransform="matrix(-1 0 0 1 292.07 -3.67)" xlink:href="#j"/><linearGradient id="y" x1="363.4" y1="70.98" x2="392.29" y2="66.6" gradientTransform="translate(-137.31 -3.67)" xlink:href="#b"/><linearGradient id="z" x1="-15.52" y1="134.46" x2="11.27" y2="134.46" gradientTransform="matrix(-1 0 0 1 292.07 -3.67)" xlink:href="#j"/><linearGradient id="aa" x1="-16.81" y1="140.74" x2="10.06" y2="140.74" gradientTransform="matrix(-1 0 0 1 292.07 -3.67)" xlink:href="#j"/><linearGradient id="ab" x1="9.25" y1="118.1" x2="31.61" y2="118.1" gradientTransform="matrix(-1 0 0 1 292.07 0)" xlink:href="#j"/><linearGradient id="ac" x1="27.82" y1="113.67" x2="28.38" y2="113.67" gradientTransform="translate(232.08)" xlink:href="#j"/><linearGradient id="ad" x1="36.05" y1="113.68" x2="36.61" y2="113.68" gradientTransform="matrix(-1 0 0 1 297.07 0)" xlink:href="#j"/><linearGradient id="ae" x1="-886.58" y1="113.67" x2="-886.02" y2="113.67" gradientTransform="matrix(-1 0 0 1 -624.97 0)" xlink:href="#j"/><linearGradient id="af" x1="950.45" y1="113.68" x2="951.01" y2="113.68" gradientTransform="translate(-689.96)" xlink:href="#j"/><linearGradient id="ag" x1="4.69" y1="82.82" x2="31.3" y2="82.82" gradientTransform="matrix(-1 0 0 1 292.07 -3.67)" xlink:href="#j"/></defs><title>logo-center</title><path class="a" d="M0 195.17h789.72"/><path class="b" d="M21.68 149.51H1.93V59.74H71v12.7H21.68zm75.01 0V59.74h29.88c18.85 0 31.8 1.67 38.85 4.87s10.52 9.1 10.52 18c0 10.77-5.39 16.67-19.11 19.75v.38c16.29 3.08 23 9.62 23 22.06 0 9.62-3.46 16.16-10.52 19.62s-19.88 5.13-38.86 5.13zM150 75c-4.19-1.67-12-2.56-23.43-2.56h-10.13v24h11c10.9 0 18.47-.9 22.57-2.56s6.28-4.87 6.28-9.36c.03-4.77-2.02-7.85-6.29-9.52zm3.72 37.06c-4.23-1.92-11.93-2.95-23.34-2.95h-14v27.7h14c11.41 0 19.24-1 23.47-2.95s6.28-5.64 6.28-11-2.13-8.87-6.37-10.8zm196.75 37.45V59.74h31.16c19 0 31.93 2.05 38.86 6S431 77.18 431 88.08c0 10.64-3.59 18.08-10.64 22.06s-19.88 5.9-38.73 5.9h-11.41v33.47zm54.63-73.74c-4.23-2.18-12.05-3.33-23.47-3.33h-11.41v31h11.41c11.41 0 19.11-1.15 23.34-3.33s6.41-6.28 6.41-12.05c0-6.01-2.05-10.11-6.28-12.29zm38.34 96.18v-35.14h14.11q8.66-10.39 11.54-25.39c2.05-10 3.08-27.19 3.21-51.68h75.53v77.07h19.62l-2.05 35.14h-15.9l-1.8-22.44h-86l-2.44 22.44zm47.7-99.51q0 27.51-2.69 40c-1.79 8.34-5.77 16.41-11.93 24.36h51.55V72.44zm118.49 77.07H590V59.74h19.75v61.81L660 59.74h19.75v89.76H660V87.7zm179.02-89.77v89.76H768.9v-35.26h-17.7l-26.8 35.26h-21.8l30-36.68c-9.11-1.41-15.65-4.1-19.36-8.08s-5.51-9.87-5.51-17.7q0-16 10.39-21.54c7.05-3.85 20-5.77 39-5.77zm-55 38.73q6.35 3.08 23.47 3.08h11.8V72.44H757.1q-17.12 0-23.47 3.08c-4.23 2.05-6.28 5.9-6.28 11.54s2.05 9.36 6.29 11.41zM41.35 272.69H37v-35.9H16a157.71 157.71 0 0 1-.78 17.78 33.4 33.4 0 0 1-2.71 10.28 30.49 30.49 0 0 1-6.15 8.39l-3.56-1.16c1.33-1.44 2.27-2.56 2.88-3.28a21.12 21.12 0 0 0 4-7.84c1.22-4.83 2.27-13.17 2.1-27.18h29.57zm28.86 0l19.11-38.9h5.82l19.16 38.9h-4.54l-5.59-10.95H80.35l-5.59 10.95zM92 237.51l-10.77 21.23h22l-10.7-21.23zm57.86 16.34v-2.61l3.77-.17c5.87-.17 9.86-.72 12-1.72s3.21-2.83 3.21-5.56-.89-4.78-2.6-5.78-5-1.56-9.75-1.56a40.55 40.55 0 0 0-13.74 2.33v-2.67a35.74 35.74 0 0 1 14.68-2.67c6 0 10.19.72 12.41 2.11s3.38 4 3.38 7.89c0 5.11-2.44 7.78-8.81 8.95v.17c7.48 1.11 10.47 4 10.47 9.84 0 4.17-1.16 6.95-3.49 8.45s-6.65 2.17-13 2.17-11.39-.88-15.62-2.69v-2.7a39.42 39.42 0 0 0 14.35 2.39c5.15 0 8.64-.56 10.52-1.67s2.88-3.22 2.88-6.28-1.11-5.06-3.38-6.17-6.43-1.72-12.63-1.83zM237 272.69h-31v-38.9h31v3h-26.7v14.28h25v3h-25v15.62H237zm30.62 0v-38.9h11.08c7.81 0 13.18.83 16 2.45s4.32 4.67 4.32 9.17-1.44 7.39-4.38 9.06-8.2 2.5-16 2.5h-6.76v15.73zm23.71-34.07q-3.41-1.83-12.63-1.83h-6.76v17.17h6.76c6.15 0 10.3-.61 12.57-1.83s3.43-3.45 3.43-6.72-1.1-5.62-3.37-6.78zm37.05-1.83v-3h38.22v3h-16.95v35.9h-4.32v-35.9zm65.53 35.9l19.09-38.9h5.82l19.18 38.9h-4.54l-5.59-10.95H404l-5.59 10.95zm21.77-35.18l-10.75 21.23h22l-10.75-21.23zm55.77 35.18h-4.32v-38.9h27.75v3h-23.43zm92.95-38.9v17.17h7.7l15.79-17.17h5l-17.23 18.89 18.5 20h-4.93L572 254.41h-7.6v18.28h-4.32v-38.9zm93.77 38.9h-4.38v-35.9h-21a157.47 157.47 0 0 1-.78 17.78 33.4 33.4 0 0 1-2.71 10.28 30.48 30.48 0 0 1-6.15 8.39l-3.49-1.17c1.33-1.44 2.27-2.56 2.88-3.28a21.11 21.11 0 0 0 4-7.84c1.22-4.83 2.27-13.17 2.1-27.18h29.58zm46.69-11.11l-17.56-27.79h4.43l15.62 24.06h.55l15.62-24.06h4.38l-22.37 35.34c-1.38 2.61-4.32 3.89-8.81 3.89a20.41 20.41 0 0 1-9-1.78v-2.67a20.48 20.48 0 0 0 7.59 1.44c3.66 0 6.09-1.11 7.37-3.39l3.93-5.06zm52.46 11.11v-38.9h29v3h-24.68v12.73h7.26c15.9.17 20.05 2.67 20.33 11.56 0 4.5-1.44 7.61-4.32 9.23s-8.2 2.39-16 2.39zm24.15-18.36c-2.27-1.22-6.43-1.83-12.57-1.83h-7.26v17.17h7.26c6.15 0 10.36-.61 12.63-1.78s3.38-3.5 3.38-6.84-1.17-5.47-3.44-6.72z"/><path class="c" d="M181.21 62.61l43.34 9.81-21.07 6.47-22.27-16.28z"/><path class="d" d="M210.75 78.48l18.1-5.72a10 10 0 0 0 2.24 1.57 8.2 8.2 0 0 0 2 .71l.6-1.85 4.6 3.4-.65 1.89 12 6.67-4.9 15.27L233.21 95z"/><path class="e" d="M224.85 121.66L233.24 95l10.87 8.31-.93 3.16-18.33 15.19z"/><path class="f" d="M181.21 60.29h27.69l15.65 9.98-43.34-9.98z"/><path class="g" d="M213.97 151.68l8.48-26.67 18.32-15.18-26.8 41.85z"/><path class="h" d="M212.68 157.96l22.45-16.52 4.43-25.33-26.88 41.85z"/><path class="i" d="M255.27 97.11l-12.09 9.35-4.43 25.21 22.36-16.34v-10.74z"/><path class="j" d="M261.11 104.59v10.74m.56-2.19"/><path class="k" d="M261.11 115.33V104.6m-.56 8.56"/><path class="l" d="M260.52 115.33v-10.74m-.56 8.56"/><path class="m" d="M260.51 104.6v10.73m.56-2.19"/><path class="n" d="M260.79 55.04l-6.95 16.73-19.65 1.15 17.59 12-6.2 18.26 15.21-11.96.01.01-.01-36.19z"/><path class="o" d="M262.66 0v41.54l8.51-15.03L262.66 0z"/><path class="p" d="M260.79 8.71V50.7l-8.45-15.29 8.45-26.7z"/><path class="q" d="M252.01 61.86h-5.03l-5.16-4.9 8.71-26.32 1.48 31.22z"/><path class="s" d="M252.34 35.41l1.19 26.64h2.45l4.81-11.35-8.45-15.29z"/><path class="t" d="M269.32 35.41l-1.03 26.45h-2.45l-4.81-11.35 8.29-15.1z"/><path class="u" d="M277.21 61.86h-8.92l1.03-26.45 7.89 26.45z"/><path class="w" d="M340.36 62.65l-43.35 9.81 21.07 6.47 22.28-16.28z"/><path class="x" d="M310.82 78.52l-18.1-5.72a10 10 0 0 1-2.24 1.53 8.2 8.2 0 0 1-2 .71l-.6-1.85-4.6 3.4.65 1.89-12 6.67 4.9 15.27L288.36 95z"/><path class="y" d="M296.71 121.7l-8.39-26.67-10.86 8.31.93 3.17 18.32 15.19z"/><path class="z" d="M340.36 60.33h-27.69l-15.66 9.98 43.35-9.98z"/><path class="aa" d="M296.51 67.81l9.29-5.91-39.73.61 15.56 9.6h6.15l8.73-4.3z"/><path class="ab" d="M225.29 67.81L216 61.9l39.74.61-15.57 9.6h-6.15l-8.73-4.3z"/><path class="ac" d="M307.59 151.71l-8.47-26.66-18.32-15.18 26.79 41.84z"/><path class="ad" d="M308.88 157.99l-22.45-16.51-4.43-25.33 26.88 41.84z"/><path class="ae" d="M260.46 104.62v10.71l22.36 16.34-4.43-25.21-12.09-9.35z"/><path class="af" d="M260.46 115.33v-10.7m-.56 8.56"/><path class="ag" d="M260.46 104.64v10.75m.56-2.19"/><path class="ah" d="M261.05 104.63v10.7m.56-2.19"/><path class="ai" d="M261.05 115.39v-10.75m-.56 8.56"/><path class="aj" d="M260.77 55.08l6.95 16.73 19.65 1.15-17.59 12 6.21 18.26-15.22-11.96-.01.01.01-36.19z"/></svg>