<svg xmlns="http://www.w3.org/2000/svg" xmlns:xlink="http://www.w3.org/1999/xlink" viewBox="0 0 789.72 276.36"><defs><style>.cls-1{fill:none;stroke:#fff;stroke-miterlimit:10;}.cls-2{font-size:128.24px;font-family:LytigaProExtended-Bold, Lytiga Pro Extended;font-weight:700;letter-spacing:0.04em;}.cls-2,.cls-5{fill:#fff;}.cls-3{letter-spacing:-0.04em;}.cls-4{letter-spacing:0.04em;}.cls-5{font-size:55.57px;font-family:LytigaProExtended, Lytiga Pro Extended;letter-spacing:0.34em;}.cls-6{fill:url(#Безымянный_градиент_16);}.cls-7{fill:url(#Безымянный_градиент_24);}.cls-8{fill:url(#Безымянный_градиент_24-2);}.cls-9{fill:url(#Безымянный_градиент_16-2);}.cls-10{fill:url(#Безымянный_градиент_24-3);}.cls-11{fill:url(#Безымянный_градиент_24-4);}.cls-12{fill:url(#Безымянный_градиент_24-5);}.cls-13{fill:url(#Безымянный_градиент_24-6);}.cls-14{fill:url(#Безымянный_градиент_24-7);}.cls-15{fill:url(#Безымянный_градиент_83);}.cls-16{fill:url(#Безымянный_градиент_83-2);}.cls-17{fill:url(#Безымянный_градиент_24-8);}.cls-18{fill:url(#Безымянный_градиент_76);}.cls-19{fill:url(#Безымянный_градиент_16-3);}.cls-20{fill:url(#Безымянный_градиент_16-4);}.cls-21{fill:url(#Безымянный_градиент_16-5);}.cls-22{fill:url(#Безымянный_градиент_76-2);}.cls-23{fill:url(#Безымянный_градиент_83-3);}.cls-24{fill:url(#Безымянный_градиент_83-4);}.cls-25{fill:url(#Безымянный_градиент_83-5);}.cls-26{fill:url(#Безымянный_градиент_83-6);}.cls-27{fill:url(#Безымянный_градиент_83-7);}.cls-28{fill:url(#Безымянный_градиент_83-8);}.cls-29{fill:url(#Безымянный_градиент_24-9);}.cls-30{fill:url(#Безымянный_градиент_83-9);}.cls-31{fill:url(#Безымянный_градиент_83-10);}.cls-32{fill:url(#Безымянный_градиент_83-11);}.cls-33{fill:url(#Безымянный_градиент_83-12);}.cls-34{fill:url(#Безымянный_градиент_83-13);}.cls-35{fill:url(#Безымянный_градиент_83-14);}.cls-36{fill:url(#Безымянный_градиент_83-15);}.cls-37{fill:url(#Безымянный_градиент_83-16);}</style><linearGradient id="Безымянный_градиент_16" x1="181.21" y1="74.42" x2="224.55" y2="74.42" gradientUnits="userSpaceOnUse"><stop offset="0"/><stop offset="0" stop-color="#3f4f80"/><stop offset="1" stop-color="#6dabe4"/></linearGradient><linearGradient id="Безымянный_градиент_24" x1="210.54" y1="86.25" x2="247.61" y2="91.71" gradientUnits="userSpaceOnUse"><stop offset="0" stop-color="#3f4f80"/><stop offset="1" stop-color="#6dabe4"/></linearGradient><linearGradient id="Безымянный_градиент_24-2" x1="224.85" y1="112" x2="244.11" y2="112" xlink:href="#Безымянный_градиент_24"/><linearGradient id="Безымянный_градиент_16-2" x1="181.21" y1="68.95" x2="224.55" y2="68.95" xlink:href="#Безымянный_градиент_16"/><linearGradient id="Безымянный_градиент_24-3" x1="213.97" y1="134.42" x2="240.77" y2="134.42" xlink:href="#Безымянный_градиент_24"/><linearGradient id="Безымянный_градиент_24-4" x1="212.68" y1="140.7" x2="239.56" y2="140.7" xlink:href="#Безымянный_градиент_24"/><linearGradient id="Безымянный_градиент_24-5" x1="238.75" y1="118.07" x2="261.11" y2="118.07" xlink:href="#Безымянный_градиент_24"/><linearGradient id="Безымянный_градиент_24-6" x1="-201.68" y1="113.63" x2="-201.12" y2="113.63" gradientTransform="matrix(-1, 0, 0, 1, 59.99, 0)" xlink:href="#Безымянный_градиент_24"/><linearGradient id="Безымянный_градиент_24-7" x1="265.55" y1="113.64" x2="266.11" y2="113.64" gradientTransform="translate(-5)" xlink:href="#Безымянный_градиент_24"/><linearGradient id="Безымянный_градиент_83" x1="-657.08" y1="113.63" x2="-656.52" y2="113.63" gradientTransform="translate(917.04)" gradientUnits="userSpaceOnUse"><stop offset="0" stop-color="#834038"/><stop offset="0.14" stop-color="#8c423b"/><stop offset="0.38" stop-color="#a64945"/><stop offset="0.48" stop-color="#b24c49"/><stop offset="1" stop-color="#ce5453"/></linearGradient><linearGradient id="Безымянный_градиент_83-2" x1="720.95" y1="113.64" x2="721.51" y2="113.64" gradientTransform="matrix(-1, 0, 0, 1, 982.03, 0)" xlink:href="#Безымянный_градиент_83"/><linearGradient id="Безымянный_градиент_24-8" x1="234.19" y1="82.78" x2="260.8" y2="82.78" xlink:href="#Безымянный_градиент_24"/><linearGradient id="Безымянный_градиент_76" x1="285.78" y1="42.71" x2="254.64" y2="18.11" gradientUnits="userSpaceOnUse"><stop offset="0" stop-color="#834038"/><stop offset="0.21" stop-color="#8c433b"/><stop offset="0.56" stop-color="#a64945"/><stop offset="1" stop-color="#ce5453"/></linearGradient><linearGradient id="Безымянный_градиент_16-3" x1="252.33" y1="33.38" x2="260.78" y2="33.38" xlink:href="#Безымянный_градиент_16"/><linearGradient id="Безымянный_градиент_16-4" x1="259.12" y1="62.49" x2="239.85" y2="40.13" xlink:href="#Безымянный_градиент_16"/><linearGradient id="Безымянный_градиент_16-5" x1="244.65" y1="65.14" x2="261.55" y2="42.5" xlink:href="#Безымянный_градиент_16"/><linearGradient id="Безымянный_градиент_76-2" x1="274.43" y1="67.85" x2="266.7" y2="50.32" xlink:href="#Безымянный_градиент_76"/><linearGradient id="Безымянный_градиент_83-3" x1="277.35" y1="61.49" x2="267.25" y2="50.64" gradientTransform="matrix(1, 0, 0, 1, 0, 0)" xlink:href="#Безымянный_градиент_83"/><linearGradient id="Безымянный_градиент_83-4" x1="-48.29" y1="74.46" x2="-4.95" y2="74.46" gradientTransform="matrix(-1, 0, 0, 1, 292.07, 0)" xlink:href="#Безымянный_градиент_83"/><linearGradient id="Безымянный_градиент_83-5" x1="-18.96" y1="86.29" x2="18.11" y2="91.75" gradientTransform="matrix(-1, 0, 0, 1, 292.07, 0)" xlink:href="#Безымянный_градиент_83"/><linearGradient id="Безымянный_градиент_83-6" x1="-4.64" y1="112.04" x2="14.61" y2="112.04" gradientTransform="matrix(-1, 0, 0, 1, 292.07, 0)" xlink:href="#Безымянный_градиент_83"/><linearGradient id="Безымянный_градиент_83-7" x1="-48.29" y1="68.99" x2="-4.95" y2="68.99" gradientTransform="matrix(-1, 0, 0, 1, 292.07, 0)" xlink:href="#Безымянный_градиент_83"/><linearGradient id="Безымянный_градиент_83-8" x1="-3.65" y1="70.98" x2="25.24" y2="66.6" gradientTransform="matrix(-1, 0, 0, 1, 292.07, 0)" xlink:href="#Безымянный_градиент_83"/><linearGradient id="Безымянный_градиент_24-9" x1="363.4" y1="70.98" x2="392.29" y2="66.6" gradientTransform="translate(-137.31)" xlink:href="#Безымянный_градиент_24"/><linearGradient id="Безымянный_градиент_83-9" x1="-15.52" y1="134.46" x2="11.27" y2="134.46" gradientTransform="matrix(-1, 0, 0, 1, 292.07, 0)" xlink:href="#Безымянный_градиент_83"/><linearGradient id="Безымянный_градиент_83-10" x1="-16.81" y1="140.74" x2="10.06" y2="140.74" gradientTransform="matrix(-1, 0, 0, 1, 292.07, 0)" xlink:href="#Безымянный_градиент_83"/><linearGradient id="Безымянный_градиент_83-11" x1="9.25" y1="118.1" x2="31.61" y2="118.1" gradientTransform="matrix(-1, 0, 0, 1, 292.07, 0)" xlink:href="#Безымянный_градиент_83"/><linearGradient id="Безымянный_градиент_83-12" x1="27.82" y1="113.67" x2="28.38" y2="113.67" gradientTransform="translate(232.08)" xlink:href="#Безымянный_градиент_83"/><linearGradient id="Безымянный_градиент_83-13" x1="36.05" y1="113.68" x2="36.61" y2="113.68" gradientTransform="matrix(-1, 0, 0, 1, 297.07, 0)" xlink:href="#Безымянный_градиент_83"/><linearGradient id="Безымянный_градиент_83-14" x1="-886.58" y1="113.67" x2="-886.02" y2="113.67" gradientTransform="matrix(-1, 0, 0, 1, -624.97, 0)" xlink:href="#Безымянный_градиент_83"/><linearGradient id="Безымянный_градиент_83-15" x1="950.45" y1="113.68" x2="951.01" y2="113.68" gradientTransform="translate(-689.96)" xlink:href="#Безымянный_градиент_83"/><linearGradient id="Безымянный_градиент_83-16" x1="4.69" y1="82.82" x2="31.3" y2="82.82" gradientTransform="matrix(-1, 0, 0, 1, 292.07, 0)" xlink:href="#Безымянный_градиент_83"/></defs><title>Монтажная область 1</title><g id="Слой_2" data-name="Слой 2"><line class="cls-1" y1="198.84" x2="789.72" y2="198.84"/><text class="cls-2" transform="translate(-10 153.18)"><tspan xml:space="preserve">ГВ   </tspan><tspan class="cls-3" x="348.54" y="0">Р</tspan><tspan class="cls-4" x="447.54" y="0">ДИЯ</tspan></text><text class="cls-5" transform="translate(-0.74 276.36)">ЛАЗЕРТАГ КЛУБ</text><polygon class="cls-6" points="181.21 66.28 224.55 76.09 203.48 82.56 181.21 66.28"/><path class="cls-7" d="M210.75,82.15l18.1-5.72A10,10,0,0,0,231.09,78a8.2,8.2,0,0,0,2,.71l.6-1.85,4.6,3.4-.65,1.89,12,6.67-4.9,15.27-11.53-5.42h0Z"/><polygon class="cls-8" points="224.85 125.33 233.24 98.67 244.11 106.98 243.18 110.14 224.85 125.33"/><polygon class="cls-9" points="181.21 63.96 208.9 63.96 224.55 73.94 181.21 63.96"/><polygon class="cls-10" points="213.97 155.35 222.45 128.68 240.77 113.5 213.97 155.35"/><polygon class="cls-11" points="212.68 161.63 235.13 145.11 239.56 119.78 212.68 161.63"/><path class="cls-12" d="M255.27,100.78l-12.09,9.35-4.43,25.21L261.11,119V108.26Z"/><path class="cls-13" d="M261.11,108.26V119m.56-2.19"/><path class="cls-14" d="M261.11,119V108.27m-.56,8.56"/><path class="cls-15" d="M260.52,119V108.26m-.56,8.56"/><path class="cls-16" d="M260.51,108.27V119m.56-2.19"/><polygon class="cls-17" points="260.79 58.71 253.84 75.44 234.19 76.59 251.78 88.59 245.58 106.85 260.79 94.89 260.8 94.9 260.79 58.71"/><polygon class="cls-18" points="262.66 3.67 262.66 45.21 271.17 30.18 262.66 3.67"/><polygon class="cls-19" points="260.79 12.38 260.79 54.37 252.34 39.08 260.79 12.38"/><polygon class="cls-20" points="252.01 65.53 246.98 65.53 241.82 60.63 250.53 34.31 252.01 65.53"/><polygon class="cls-21" points="252.34 39.08 253.53 65.72 255.98 65.72 260.79 54.37 252.34 39.08"/><polygon class="cls-22" points="269.32 39.08 268.29 65.53 265.84 65.53 261.03 54.18 269.32 39.08"/><polygon class="cls-23" points="277.21 65.53 268.29 65.53 269.32 39.08 277.21 65.53"/><polygon class="cls-24" points="340.36 66.32 297.01 76.13 318.08 82.6 340.36 66.32"/><path class="cls-25" d="M310.82,82.19l-18.1-5.72A10,10,0,0,1,290.48,78a8.2,8.2,0,0,1-2,.71l-.6-1.85-4.6,3.4.65,1.89-12,6.67,4.9,15.27,11.53-5.42h0Z"/><polygon class="cls-26" points="296.71 125.37 288.32 98.7 277.46 107.02 278.39 110.18 296.71 125.37"/><polygon class="cls-27" points="340.36 64 312.67 64 297.01 73.98 340.36 64"/><polygon class="cls-28" points="296.51 71.48 305.8 65.57 266.07 66.18 281.63 75.78 287.78 75.78 296.51 71.48"/><polygon class="cls-29" points="225.29 71.48 216 65.57 255.74 66.18 240.17 75.78 234.02 75.78 225.29 71.48"/><polygon class="cls-30" points="307.59 155.38 299.12 128.72 280.8 113.54 307.59 155.38"/><polygon class="cls-31" points="308.88 161.66 286.43 145.15 282 119.82 308.88 161.66"/><path class="cls-32" d="M260.46,108.29V119l22.36,16.34-4.43-25.21-12.09-9.35Z"/><path class="cls-33" d="M260.46,119V108.3m-.56,8.56"/><path class="cls-34" d="M260.46,108.31v10.75m.56-2.19"/><path class="cls-35" d="M261.05,108.3V119m.56-2.19"/><path class="cls-36" d="M261.05,119.06V108.31m-.56,8.56"/><polygon class="cls-37" points="260.77 58.74 267.72 75.48 287.37 76.63 269.78 88.63 275.99 106.89 260.77 94.93 260.76 94.94 260.77 58.74"/></g></svg>