<svg id="Слой_1" data-name="Слой 1" xmlns="http://www.w3.org/2000/svg" xmlns:xlink="http://www.w3.org/1999/xlink" viewBox="0 0 344 109"><defs><style>.cls-1{font-size:40.41px;font-family:LytigaProExtended-Bold, Lytiga Pro Extended;font-weight:700;}.cls-1,.cls-3{fill:#fff;}.cls-2{letter-spacing:-0.08em;}.cls-3{font-size:17.51px;font-family:LytigaProExtended, Lytiga Pro Extended;letter-spacing:0.28em;}.cls-4{fill:url(#Безымянный_градиент_16);}.cls-5{fill:url(#Безымянный_градиент_24);}.cls-6{fill:url(#Безымянный_градиент_24-2);}.cls-7{fill:url(#Безымянный_градиент_16-2);}.cls-8{fill:url(#Безымянный_градиент_24-3);}.cls-9{fill:url(#Безымянный_градиент_24-4);}.cls-10{fill:url(#Безымянный_градиент_24-5);}.cls-11{fill:url(#Безымянный_градиент_24-6);}.cls-12{fill:url(#Безымянный_градиент_24-7);}.cls-13{fill:url(#Безымянный_градиент_83);}.cls-14{fill:url(#Безымянный_градиент_83-2);}.cls-15{fill:url(#Безымянный_градиент_24-8);}.cls-16{fill:url(#Безымянный_градиент_76);}.cls-17{fill:url(#Безымянный_градиент_16-3);}.cls-18{fill:url(#Безымянный_градиент_16-4);}.cls-19{fill:url(#Безымянный_градиент_16-5);}.cls-20{fill:url(#Безымянный_градиент_76-2);}.cls-21{fill:url(#Безымянный_градиент_83-3);}.cls-22{fill:url(#Безымянный_градиент_83-4);}.cls-23{fill:url(#Безымянный_градиент_83-5);}.cls-24{fill:url(#Безымянный_градиент_83-6);}.cls-25{fill:url(#Безымянный_градиент_83-7);}.cls-26{fill:url(#Безымянный_градиент_83-8);}.cls-27{fill:url(#Безымянный_градиент_24-9);}.cls-28{fill:url(#Безымянный_градиент_83-9);}.cls-29{fill:url(#Безымянный_градиент_83-10);}.cls-30{fill:url(#Безымянный_градиент_83-11);}.cls-31{fill:url(#Безымянный_градиент_83-12);}.cls-32{fill:url(#Безымянный_градиент_83-13);}.cls-33{fill:url(#Безымянный_градиент_83-14);}.cls-34{fill:url(#Безымянный_градиент_83-15);}.cls-35{fill:url(#Безымянный_градиент_83-16);}</style><linearGradient id="Безымянный_градиент_16" y1="49.43" x2="30.28" y2="49.43" gradientUnits="userSpaceOnUse"><stop offset="0"/><stop offset="0" stop-color="#3f4f80"/><stop offset="1" stop-color="#6dabe4"/></linearGradient><linearGradient id="Безымянный_градиент_24" x1="20.49" y1="57.69" x2="46.39" y2="61.5" gradientUnits="userSpaceOnUse"><stop offset="0" stop-color="#3f4f80"/><stop offset="1" stop-color="#6dabe4"/></linearGradient><linearGradient id="Безымянный_градиент_24-2" x1="30.49" y1="75.68" x2="43.94" y2="75.68" xlink:href="#Безымянный_градиент_24"/><linearGradient id="Безымянный_градиент_16-2" y1="45.6" x2="30.28" y2="45.6" xlink:href="#Безымянный_градиент_16"/><linearGradient id="Безымянный_градиент_24-3" x1="22.89" y1="91.34" x2="41.61" y2="91.34" xlink:href="#Безымянный_градиент_24"/><linearGradient id="Безымянный_градиент_24-4" x1="21.99" y1="95.73" x2="40.77" y2="95.73" xlink:href="#Безымянный_градиент_24"/><linearGradient id="Безымянный_градиент_24-5" x1="40.2" y1="79.91" x2="55.82" y2="79.91" xlink:href="#Безымянный_градиент_24"/><linearGradient id="Безымянный_градиент_24-6" x1="530.04" y1="76.82" x2="530.43" y2="76.82" gradientTransform="matrix(-1, 0, 0, 1, 586.25, 0)" xlink:href="#Безымянный_градиент_24"/><linearGradient id="Безымянный_градиент_24-7" x1="60.43" y1="76.82" x2="60.82" y2="76.82" gradientTransform="translate(-5)" xlink:href="#Безымянный_градиент_24"/><linearGradient id="Безымянный_градиент_83" x1="-862.02" y1="76.82" x2="-861.63" y2="76.82" gradientTransform="translate(917.04)" gradientUnits="userSpaceOnUse"><stop offset="0" stop-color="#834038"/><stop offset="0.14" stop-color="#8c423b"/><stop offset="0.38" stop-color="#a64945"/><stop offset="0.48" stop-color="#b24c49"/><stop offset="1" stop-color="#ce5453"/></linearGradient><linearGradient id="Безымянный_градиент_83-2" x1="1452.5" y1="76.82" x2="1452.89" y2="76.82" gradientTransform="matrix(-1, 0, 0, 1, 1508.29, 0)" xlink:href="#Безымянный_градиент_83"/><linearGradient id="Безымянный_градиент_24-8" x1="37.02" y1="55.26" x2="55.6" y2="55.26" xlink:href="#Безымянный_градиент_24"/><linearGradient id="Безымянный_градиент_76" x1="73.05" y1="27.27" x2="51.3" y2="10.09" gradientUnits="userSpaceOnUse"><stop offset="0" stop-color="#834038"/><stop offset="0.21" stop-color="#8c433b"/><stop offset="0.56" stop-color="#a64945"/><stop offset="1" stop-color="#ce5453"/></linearGradient><linearGradient id="Безымянный_градиент_16-3" x1="49.69" y1="20.75" x2="55.59" y2="20.75" xlink:href="#Безымянный_градиент_16"/><linearGradient id="Безымянный_градиент_16-4" x1="54.43" y1="41.09" x2="40.97" y2="25.47" xlink:href="#Безымянный_градиент_16"/><linearGradient id="Безымянный_градиент_16-5" x1="44.32" y1="42.94" x2="56.13" y2="27.13" xlink:href="#Безымянный_градиент_16"/><linearGradient id="Безымянный_градиент_76-2" x1="65.12" y1="44.84" x2="59.73" y2="32.59" xlink:href="#Безымянный_градиент_76"/><linearGradient id="Безымянный_градиент_83-3" x1="67.16" y1="40.39" x2="60.11" y2="32.81" gradientTransform="matrix(1, 0, 0, 1, 0, 0)" xlink:href="#Безымянный_градиент_83"/><linearGradient id="Безымянный_градиент_83-4" x1="707.15" y1="49.45" x2="737.43" y2="49.45" gradientTransform="matrix(-1, 0, 0, 1, 818.33, 0)" xlink:href="#Безымянный_градиент_83"/><linearGradient id="Безымянный_градиент_83-5" x1="727.64" y1="57.71" x2="753.54" y2="61.53" gradientTransform="matrix(-1, 0, 0, 1, 818.33, 0)" xlink:href="#Безымянный_градиент_83"/><linearGradient id="Безымянный_градиент_83-6" x1="737.64" y1="75.7" x2="751.09" y2="75.7" gradientTransform="matrix(-1, 0, 0, 1, 818.33, 0)" xlink:href="#Безымянный_градиент_83"/><linearGradient id="Безымянный_градиент_83-7" x1="707.15" y1="45.63" x2="737.43" y2="45.63" gradientTransform="matrix(-1, 0, 0, 1, 818.33, 0)" xlink:href="#Безымянный_градиент_83"/><linearGradient id="Безымянный_градиент_83-8" x1="738.34" y1="47.02" x2="758.51" y2="43.96" gradientTransform="matrix(-1, 0, 0, 1, 818.33, 0)" xlink:href="#Безымянный_градиент_83"/><linearGradient id="Безымянный_градиент_24-9" x1="168.67" y1="47.02" x2="188.85" y2="43.96" gradientTransform="translate(-137.31)" xlink:href="#Безымянный_градиент_24"/><linearGradient id="Безымянный_градиент_83-9" x1="730.04" y1="91.37" x2="748.76" y2="91.37" gradientTransform="matrix(-1, 0, 0, 1, 818.33, 0)" xlink:href="#Безымянный_градиент_83"/><linearGradient id="Безымянный_градиент_83-10" x1="729.14" y1="95.75" x2="747.91" y2="95.75" gradientTransform="matrix(-1, 0, 0, 1, 818.33, 0)" xlink:href="#Безымянный_градиент_83"/><linearGradient id="Безымянный_градиент_83-11" x1="747.34" y1="79.94" x2="762.97" y2="79.94" gradientTransform="matrix(-1, 0, 0, 1, 818.33, 0)" xlink:href="#Безымянный_градиент_83"/><linearGradient id="Безымянный_градиент_83-12" x1="-177.1" y1="76.84" x2="-176.71" y2="76.84" gradientTransform="translate(232.08)" xlink:href="#Безымянный_градиент_83"/><linearGradient id="Безымянный_градиент_83-13" x1="767.58" y1="76.85" x2="767.97" y2="76.85" gradientTransform="matrix(-1, 0, 0, 1, 823.33, 0)" xlink:href="#Безымянный_градиент_83"/><linearGradient id="Безымянный_градиент_83-14" x1="-154.88" y1="76.84" x2="-154.49" y2="76.84" gradientTransform="matrix(-1, 0, 0, 1, -98.71, 0)" xlink:href="#Безымянный_градиент_83"/><linearGradient id="Безымянный_градиент_83-15" x1="745.35" y1="76.85" x2="745.74" y2="76.85" gradientTransform="translate(-689.96)" xlink:href="#Безымянный_градиент_83"/><linearGradient id="Безымянный_градиент_83-16" x1="744.16" y1="55.29" x2="762.75" y2="55.29" gradientTransform="matrix(-1, 0, 0, 1, 818.33, 0)" xlink:href="#Безымянный_градиент_83"/></defs><title>Монтажная область 1</title><text class="cls-1" transform="translate(105.06 85.01)">ГВА<tspan class="cls-2" x="100.47" y="0">Р</tspan><tspan x="130.05" y="0">ДИЯ</tspan></text><text class="cls-3" transform="translate(106.63 109.02)">ЛАЗЕРТАГ КЛУБ</text><polygon class="cls-4" points="0 43.74 30.28 50.59 15.56 55.11 0 43.74"/><path class="cls-5" d="M20.64,54.83l12.65-4a7,7,0,0,0,1.56,1.1,5.73,5.73,0,0,0,1.38.5l.42-1.29,3.21,2.37-.45,1.32,8.41,4.66L44.4,70.15l-8.05-3.79h0Z"/><polygon class="cls-6" points="30.49 84.99 36.35 66.36 43.94 72.17 43.29 74.38 30.49 84.99"/><polygon class="cls-7" points="0 42.12 19.35 42.12 30.28 49.09 0 42.12"/><polygon class="cls-8" points="22.89 105.96 28.81 87.33 41.61 76.73 22.89 105.96"/><polygon class="cls-9" points="21.99 110.34 37.67 98.81 40.77 81.11 21.99 110.34"/><path class="cls-10" d="M51.74,67.84l-8.45,6.53L40.2,92,55.82,80.57V73.06Z"/><path class="cls-11" d="M55.82,73.06v7.51M56.21,79"/><path class="cls-12" d="M55.82,80.58V73.07m-.39,6"/><path class="cls-13" d="M55.4,80.57V73.06M55,79"/><path class="cls-14" d="M55.4,73.07v7.51M55.79,79"/><polygon class="cls-15" points="55.6 38.45 50.74 50.14 37.02 50.94 49.3 59.32 44.97 72.08 55.6 63.73 55.6 63.73 55.6 38.45"/><polygon class="cls-16" points="56.9 0 56.9 29.02 62.85 18.52 56.9 0"/><polygon class="cls-17" points="55.59 6.08 55.59 35.42 49.69 24.74 55.59 6.08"/><polygon class="cls-18" points="49.46 43.22 45.95 43.22 42.34 39.79 48.43 21.41 49.46 43.22"/><polygon class="cls-19" points="49.69 24.74 50.52 43.35 52.23 43.35 55.59 35.42 49.69 24.74"/><polygon class="cls-20" points="61.56 24.74 60.84 43.22 59.12 43.22 55.77 35.28 61.56 24.74"/><polygon class="cls-21" points="67.07 43.22 60.84 43.22 61.56 24.74 67.07 43.22"/><polygon class="cls-22" points="111.18 43.77 80.9 50.62 95.62 55.14 111.18 43.77"/><path class="cls-23" d="M90.54,54.85l-12.65-4A7,7,0,0,1,76.33,52a5.73,5.73,0,0,1-1.38.5l-.42-1.29-3.21,2.37.45,1.32-8.41,4.66,3.42,10.66,8.05-3.79h0Z"/><polygon class="cls-24" points="80.69 85.01 74.83 66.39 67.24 72.19 67.89 74.4 80.69 85.01"/><polygon class="cls-25" points="111.18 42.15 91.83 42.15 80.9 49.12 111.18 42.15"/><polygon class="cls-26" points="80.55 47.37 87.04 43.24 59.28 43.67 70.16 50.38 74.45 50.38 80.55 47.37"/><polygon class="cls-27" points="30.8 47.37 24.31 43.24 52.07 43.67 41.19 50.38 36.9 50.38 30.8 47.37"/><polygon class="cls-28" points="88.29 105.98 82.37 87.36 69.57 76.75 88.29 105.98"/><polygon class="cls-29" points="89.19 110.37 73.51 98.83 70.42 81.14 89.19 110.37"/><path class="cls-30" d="M55.36,73.09V80.6L71,92,67.89,74.4l-8.45-6.53Z"/><path class="cls-31" d="M55.37,80.6V73.09m-.39,6"/><path class="cls-32" d="M55.36,73.1v7.51m.39-1.53"/><path class="cls-33" d="M55.78,73.09V80.6m.39-1.53"/><path class="cls-34" d="M55.78,80.61V73.1m-.39,6"/><polygon class="cls-35" points="55.59 38.47 60.44 50.16 74.17 50.97 61.88 59.35 66.21 72.11 55.59 63.75 55.58 63.76 55.59 38.47"/></svg>